# Blender v2.81 (sub 16) OBJ File: 'WarehouseFloor.blend'
# www.blender.org
mtllib Floor.mtl
o WarehouseFloor_Cube.001
v -1.000000 0.000000 1.000000
v -1.000000 1.000000 1.000000
v -1.000000 0.000000 -1.000000
v -1.000000 1.000000 -1.000000
v 1.000000 0.000000 1.000000
v 1.000000 1.000000 1.000000
v 1.000000 0.000000 -1.000000
v 1.000000 1.000000 -1.000000
vt 0.000000 0.000000
vt 0.000000 0.249000
vt 1.000000 0.249000
vt 1.000000 0.000000
vt 0.000000 0.000000
vt 0.000000 0.249000
vt 1.000000 0.249000
vt 1.000000 0.000000
vt 0.000000 0.249000
vt 0.000000 0.000000
vt 1.000000 0.000000
vt 1.000000 0.249000
vt 0.208348 0.114117
vt 0.244777 0.114117
vt 0.244777 0.150546
vt 0.208348 0.150546
vt 1.000000 1.000000
vt 0.000000 1.000000
vt 0.000000 0.251000
vt 1.000000 0.251000
vn -1.0000 0.0000 0.0000
vn 0.0000 0.0000 -1.0000
vn 1.0000 0.0000 0.0000
vn 0.0000 0.0000 1.0000
vn 0.0000 -1.0000 0.0000
vn 0.0000 1.0000 0.0000
usemtl WarehouseFloorMat
s off
f 1/1/1 2/2/1 4/3/1 3/4/1
f 3/5/2 4/6/2 8/7/2 7/8/2
f 7/8/3 8/7/3 6/9/3 5/10/3
f 5/11/4 6/12/4 2/2/4 1/1/4
f 3/13/5 7/14/5 5/15/5 1/16/5
f 8/17/6 4/18/6 2/19/6 6/20/6
