<?xml version="1.0" encoding="UTF-8" standalone="no"?>
<svg
   inkscape:version="1.1.1 (3bf5ae0d25, 2021-09-20)"
   id="svg8"
   version="1.1"
   viewBox="0 0 33.866668 33.866666"
   height="128"
   width="128"
   sodipodi:docname="controller-icon.svg"
   inkscape:export-filename="C:\Users\dalew\Documents\Projects\cook1-tower\UI\controller-icon.png"
   inkscape:export-xdpi="90"
   inkscape:export-ydpi="90"
   xmlns:inkscape="http://www.inkscape.org/namespaces/inkscape"
   xmlns:sodipodi="http://sodipodi.sourceforge.net/DTD/sodipodi-0.dtd"
   xmlns="http://www.w3.org/2000/svg"
   xmlns:svg="http://www.w3.org/2000/svg"
   xmlns:rdf="http://www.w3.org/1999/02/22-rdf-syntax-ns#"
   xmlns:cc="http://creativecommons.org/ns#"
   xmlns:dc="http://purl.org/dc/elements/1.1/">
  <defs
     id="defs2">
    <marker
       style="overflow:visible"
       id="Arrow2Send"
       refX="0"
       refY="0"
       orient="auto"
       inkscape:stockid="Arrow2Send"
       inkscape:isstock="true">
      <path
         transform="matrix(-0.3,0,0,-0.3,0.69,0)"
         d="M 8.7185878,4.0337352 -2.2072895,0.01601326 8.7185884,-4.0017078 c -1.7454984,2.3720609 -1.7354408,5.6174519 -6e-7,8.035443 z"
         style="fill:context-stroke;fill-rule:evenodd;stroke:context-stroke;stroke-width:0.625;stroke-linejoin:round"
         id="path6233" />
    </marker>
    <marker
       style="overflow:visible"
       id="marker972"
       refX="0"
       refY="0"
       orient="auto"
       inkscape:stockid="Arrow2Send"
       inkscape:isstock="true">
      <path
         transform="matrix(-0.3,0,0,-0.3,0.69,0)"
         d="M 8.7185878,4.0337352 -2.2072895,0.01601326 8.7185884,-4.0017078 c -1.7454984,2.3720609 -1.7354408,5.6174519 -6e-7,8.035443 z"
         style="fill:context-stroke;fill-rule:evenodd;stroke:context-stroke;stroke-width:0.625;stroke-linejoin:round"
         id="path970" />
    </marker>
    <marker
       style="overflow:visible"
       id="marker976"
       refX="0"
       refY="0"
       orient="auto"
       inkscape:stockid="Arrow2Send"
       inkscape:isstock="true">
      <path
         transform="matrix(-0.3,0,0,-0.3,0.69,0)"
         d="M 8.7185878,4.0337352 -2.2072895,0.01601326 8.7185884,-4.0017078 c -1.7454984,2.3720609 -1.7354408,5.6174519 -6e-7,8.035443 z"
         style="fill:context-stroke;fill-rule:evenodd;stroke:context-stroke;stroke-width:0.625;stroke-linejoin:round"
         id="path974" />
    </marker>
  </defs>
  <sodipodi:namedview
     showgrid="false"
     inkscape:document-rotation="0"
     inkscape:current-layer="g1735"
     inkscape:document-units="mm"
     inkscape:cy="69.375"
     inkscape:cx="60.089286"
     inkscape:zoom="5.6"
     inkscape:pageshadow="2"
     inkscape:pageopacity="0"
     borderopacity="1.0"
     bordercolor="#666666"
     pagecolor="#818181"
     id="base"
     inkscape:pagecheckerboard="0"
     units="px"
     inkscape:window-width="1840"
     inkscape:window-height="1051"
     inkscape:window-x="-9"
     inkscape:window-y="-9"
     inkscape:window-maximized="1" />
  <metadata
     id="metadata5">
    <rdf:RDF>
      <cc:Work
         rdf:about="">
        <dc:format>image/svg+xml</dc:format>
        <dc:type
           rdf:resource="http://purl.org/dc/dcmitype/StillImage" />
      </cc:Work>
    </rdf:RDF>
  </metadata>
  <g
     id="layer1"
     inkscape:groupmode="layer"
     inkscape:label="Layer 1">
    <g
       id="g20997"
       transform="matrix(0.26458333,0,0,0.26458333,-359.39753,-122.20209)">
      <g
         id="g3095"
         transform="matrix(0.46480197,0,0,0.46480197,1054.5293,290.37786)">
        <g
           id="g2326"
           transform="rotate(90,805.28614,905.71371)">
          <g
             id="g1735"
             transform="matrix(0.25023676,0,0,0.25023676,290.92342,749.94985)">
            <path
               id="rect1861"
               style="stroke-width:51.586;stroke-linecap:round;stroke-linejoin:round"
               transform="rotate(-65.279193)"
               d="m -727.4184,797.19031 h 139.1457 c 49.06386,0 88.56292,39.49906 88.56292,88.56292 v 217.44597 c 0,49.0638 -39.49906,88.5629 -88.56292,88.5629 h -139.1457 c -49.06386,0 -70.28284,-43.0316 -88.56292,-88.5629 L -922.30851,838.36398 c -18.28011,-45.5313 145.82625,-41.17367 194.89011,-41.17367 z"
               sodipodi:nodetypes="sssssssss" />
            <path
               id="path2277"
               style="stroke-width:51.586;stroke-linecap:round;stroke-linejoin:round"
               d="m 419.92872,342.39048 58.19031,126.3939 c 20.51836,44.56747 72.91597,63.92827 117.48344,43.40997 L 793.1209,421.25908 c 44.56742,-20.5183 63.92829,-72.9159 43.40993,-117.48341 L 778.34052,177.38179 C 757.82216,132.81432 709.86042,131.53561 660.8571,133.97184 l -285.03047,14.1703 c -49.00333,2.4362 23.58374,149.68091 44.10209,194.24834 z"
               sodipodi:nodetypes="sssssssss" />
            <rect
               style="fill:#000000;stroke:#000000;stroke-width:5.6414;stroke-linecap:round;stroke-linejoin:round;stroke-miterlimit:4;stroke-dasharray:none;stroke-opacity:1"
               id="rect2312"
               width="94.64431"
               height="166.07288"
               x="154.10641"
               y="837.07812" />
            <rect
               style="fill:#000000;stroke:#000000;stroke-width:5.6414;stroke-linecap:round;stroke-linejoin:round;stroke-miterlimit:4;stroke-dasharray:none;stroke-opacity:1"
               id="rect2128"
               width="94.64431"
               height="166.07288"
               x="154.10641"
               y="348.39215" />
            <path
               id="rect41"
               style="fill:#000000;stroke:#000000;stroke-width:10;stroke-linecap:round;stroke-linejoin:round;stroke-opacity:1"
               d="m 337.1437,154.28516 c -82.3085,0 -148.57227,72.63455 -148.57227,162.85742 v 277.14258 300 128.72384 c 0,90.2229 66.26377,162.8574 148.57227,162.8574 h 78 c 217.78064,-2.9686 242,-119.2003 242,-291.58124 v -300 -122.85742 c 0,-224.50859 -71.1199,-317.14258 -242,-317.14258 z"
               sodipodi:nodetypes="ssccsscccsss" />
            <path
               id="rect521"
               style="fill:#ffffff;stroke:#000000;stroke-width:10;stroke-linecap:round;stroke-linejoin:round;stroke-opacity:1"
               d="m 320,155.44141 c -74.16115,9.27506 -131.42773,77.8466 -131.42773,161.70117 v 277.14258 300 128.72384 c 0,83.8546 57.26658,152.4262 131.42773,161.7012 z"
               sodipodi:nodetypes="csccscc" />
            <circle
               style="fill:#ffffff;stroke:#000000;stroke-width:10;stroke-linecap:round;stroke-linejoin:round;stroke-opacity:1"
               id="path1479"
               cx="478.67816"
               cy="910.58264"
               r="108.57143" />
            <circle
               style="fill:#ffffff;stroke:#000000;stroke-width:6;stroke-linecap:round;stroke-linejoin:round;stroke-miterlimit:4;stroke-dasharray:none;stroke-opacity:1"
               id="path1479-2-7"
               cx="485.71429"
               cy="357.14285"
               r="37.556152" />
            <circle
               style="fill:#ffffff;stroke:#000000;stroke-width:8.49057;stroke-linecap:round;stroke-linejoin:round;stroke-opacity:1"
               id="circle1490"
               cx="478.67816"
               cy="910.58264"
               r="92.183289" />
            <circle
               style="fill:#ffffff;stroke:#000000;stroke-width:6;stroke-linecap:round;stroke-linejoin:round;stroke-miterlimit:4;stroke-dasharray:none;stroke-opacity:1"
               id="circle1718"
               cx="485.71429"
               cy="520"
               r="37.556152" />
            <circle
               style="fill:#ffffff;stroke:#000000;stroke-width:6;stroke-linecap:round;stroke-linejoin:round;stroke-miterlimit:4;stroke-dasharray:none;stroke-opacity:1"
               id="circle1913"
               cx="438.57141"
               cy="-567.14288"
               r="37.556152"
               transform="rotate(90)" />
            <circle
               style="fill:#ffffff;stroke:#000000;stroke-width:6;stroke-linecap:round;stroke-linejoin:round;stroke-miterlimit:4;stroke-dasharray:none;stroke-opacity:1"
               id="circle1915"
               cx="438.57141"
               cy="-404.28571"
               r="37.556152"
               transform="rotate(90)" />
            <path
               id="rect1939"
               style="fill:#ffffff;stroke:#000000;stroke-width:1.9014;stroke-linecap:round;stroke-linejoin:round;stroke-miterlimit:4;stroke-dasharray:none;stroke-opacity:1"
               d="m 378.94628,215.09281 v 25.28066 h -25.28065 v 24.96552 h 25.28065 v 25.28066 h 24.96485 v -25.28066 h 25.28066 v -24.96552 h -25.28066 v -25.28066 z" />
          </g>
        </g>
      </g>
    </g>
  </g>
</svg>
