<?xml version="1.0" encoding="UTF-8" standalone="no"?>
<!DOCTYPE svg PUBLIC "-//W3C//DTD SVG 1.1//EN" "http://www.w3.org/Graphics/SVG/1.1/DTD/svg11.dtd">
<svg width="100%" height="100%" viewBox="0 0 1024 1024" version="1.1" xmlns="http://www.w3.org/2000/svg" xmlns:xlink="http://www.w3.org/1999/xlink" xml:space="preserve" xmlns:serif="http://www.serif.com/" style="fill-rule:evenodd;clip-rule:evenodd;stroke-miterlimit:10;">
    <g id="Layer-1" serif:id="Layer 1" transform="matrix(2.10341,0,0,2.10341,-112.908,-160.451)">
        <g id="Circles">
            <g transform="matrix(0,-1,-1,0,295.957,124.819)">
                <path d="M-194.878,-194.878C-302.506,-194.878 -389.755,-107.628 -389.755,-0C-389.755,107.628 -302.506,194.878 -194.878,194.878C-87.25,194.878 -0,107.628 -0,-0C-0,-107.628 -87.25,-194.878 -194.878,-194.878" style="fill:white;fill-rule:nonzero;"/>
            </g>
            <g transform="matrix(0,-1,-1,0,295.957,124.819)">
                <path d="M-194.878,-194.878C-302.506,-194.878 -389.755,-107.628 -389.755,-0C-389.755,107.628 -302.506,194.878 -194.878,194.878C-87.25,194.878 -0,107.628 -0,-0C-0,-107.628 -87.25,-194.878 -194.878,-194.878Z" style="fill:none;fill-rule:nonzero;stroke:rgb(35,31,32);stroke-width:10.12px;"/>
            </g>
            <g transform="matrix(0,-1,-1,0,293.803,192.762)">
                <path d="M-126.935,-126.935C-197.039,-126.935 -253.869,-70.105 -253.869,-0C-253.869,70.104 -197.039,126.935 -126.935,126.935C-56.831,126.935 -0,70.104 -0,-0C-0,-70.105 -56.831,-126.935 -126.935,-126.935" style="fill:white;fill-rule:nonzero;"/>
            </g>
            <g transform="matrix(0,-1,-1,0,293.803,192.762)">
                <ellipse cx="-126.935" cy="0" rx="126.934" ry="126.935" style="fill:none;stroke:rgb(35,31,32);stroke-width:10.12px;"/>
            </g>
        </g>
        <g id="CompletelyGames" transform="matrix(0.24,0,0,0.24,0,0)">
            <path d="M1241.71,2055.33C1245.87,2049.56 1248.58,2043.22 1248.06,2032.77L1244.9,1974.89C1244.5,1966.68 1241.17,1955.67 1233.94,1952.51L1234.05,1952.19L1268.35,1947.99C1266.82,1950.42 1267.68,1954.97 1272.39,1961.15L1290.3,1984.49C1295.93,1991.91 1300.2,1999.49 1302.59,2007.76L1303.19,2007.68C1304.32,1998.38 1307.38,1991.1 1311.27,1981.91L1322.8,1954.52C1325.74,1947.55 1325.51,1943.22 1323.44,1941.22L1358.03,1936.98L1358.21,1937.26C1351.93,1941.78 1350.8,1953.63 1352.4,1961.7L1364.1,2018.53C1365.57,2025.56 1369.52,2034.24 1375.57,2038.9L1375.46,2039.22L1341.17,2043.42L1340.98,2043.14C1343.52,2040.28 1345.57,2033.42 1343.67,2024.19L1337.51,1993.86C1336.06,1986.98 1335.26,1979.27 1335.28,1968.3L1334.68,1968.38C1332.76,1978.68 1330.17,1986.05 1326.25,1994.94L1313.04,2024.8C1308.75,2034.34 1308.12,2040.42 1308.21,2043.57L1307.01,2043.71C1306.18,2040.66 1303.95,2034.93 1297.34,2026.87L1276.07,2000.95C1270.33,1993.84 1266.33,1987.28 1262.21,1977.27L1261.61,1977.34C1264.18,1988.29 1265.16,1996.28 1265.64,2002.68L1267.76,2033.51C1268.45,2042.88 1271.8,2049.08 1274.95,2051.25L1274.84,2051.57L1241.9,2055.6L1241.71,2055.33ZM1194.84,2054.77L1194.81,2055.06L1160.96,2051.08L1160.99,2050.79C1163.77,2049.16 1165.67,2043.23 1163.13,2032.58L1162.2,2028.86L1123.55,2024.32L1121.79,2027.71C1116.69,2037.47 1117.48,2043.72 1119.35,2045.89L1119.32,2046.18L1087.86,2042.48L1087.89,2042.19C1092.36,2039.11 1099.86,2030.84 1105.24,2019.91L1133.81,1961.42C1137.83,1953.04 1135.71,1946.48 1133.14,1943.78L1133.18,1943.49L1172.87,1948.15L1172.84,1948.45C1169.7,1950.63 1165.99,1956.35 1168.11,1965.45L1182.98,2029.05C1185.69,2040.92 1191.05,2050.87 1194.84,2054.77ZM1492.35,1971.59L1498.08,2001C1492.51,2001.98 1488.71,2002.98 1480.3,2005.89L1429.98,2023.34L1429.88,2023.05C1432.62,2019.42 1434.36,2011.09 1430.35,1999.55L1411.07,1943.92C1407.02,1932.23 1400.68,1926.85 1396.14,1925.74L1396.05,1925.46L1447.22,1907.73C1452.92,1905.75 1459.05,1903.15 1461.93,1901.37L1473.1,1925.73L1472.86,1925.97C1467.05,1920.26 1457.99,1919.45 1446.87,1923.3L1428.05,1929.83L1436.65,1954.61L1447.48,1950.86C1459.31,1946.76 1463.26,1945.23 1469.38,1942.17L1473.45,1967.26L1473.16,1967.35C1468.54,1961.86 1462.53,1961.1 1454.55,1963.87L1441.43,1968.41L1452.42,2000.1L1467.96,1994.72C1480.5,1990.37 1488.87,1982.26 1492.02,1971.55L1492.35,1971.59ZM1063.15,1979.45L1063.06,1979.73C1059.03,1980.63 1055.4,1986.12 1050.76,1998.71L1042.26,2021.79C1030.57,2024.32 1014.78,2023.1 1003.46,2018.93C973.876,2008.04 961.109,1980.3 971.818,1951.21C983.763,1918.76 1012.15,1907.13 1043.57,1918.71C1053.9,1922.51 1062.68,1927.49 1069.07,1932.39L1062.8,1955.97L1062.47,1956.01C1058.18,1945.37 1049.91,1937.72 1037.74,1933.24C1017.93,1925.93 1001.36,1935.57 993.276,1957.52C985.093,1979.76 991.509,1997.69 1010.33,2004.63C1016.28,2006.82 1021.73,2007.72 1027.03,2007.29L1035.43,1984.49C1028.01,1981.91 1019.1,1980.38 1011.66,1983.99L1011.43,1983.74L1021.58,1963.18C1024.48,1964.88 1029.47,1967.04 1038.53,1970.38L1063.15,1979.45ZM1137.58,1995.34L1130.2,2010.38L1158.96,2013.77L1155.25,1997.42C1152.94,1987.39 1150.35,1977.03 1150.19,1965.45L1149.59,1965.38C1146.91,1976.62 1142.15,1986.12 1137.58,1995.34ZM1550.65,1971.75L1536.17,1951.16L1536.36,1950.88C1549.94,1956.59 1560.61,1955.56 1571.24,1949.25C1581.76,1943.01 1583.88,1936.01 1579.94,1928.99C1574.91,1920.02 1564.99,1921.14 1554.01,1922.52C1539.93,1924.26 1524.18,1926.09 1514.05,1908.02C1506.83,1895.14 1511.37,1877.04 1531.76,1865.6C1538.6,1861.76 1545.22,1859.07 1553.95,1856.74L1567.61,1877.1L1567.35,1877.25C1556.88,1871.84 1548.22,1873.97 1540.59,1878.25C1530.59,1883.86 1527.36,1890.12 1531.08,1896.75C1535.31,1904.3 1544.35,1903.15 1554.87,1901.86C1569.28,1900.1 1586.43,1898 1597.36,1917.5C1605.46,1931.93 1601.31,1949.82 1580.14,1962.04C1569.56,1968.14 1558.55,1971.93 1550.65,1971.75ZM1826.18,922.795L1825.95,922.975C1821.4,921.72 1813.89,921.987 1806.53,922.704L1752.29,928.52L1738.01,939.533C1727.86,947.362 1724.18,955.525 1725.21,961.02L1724.98,961.2L1701.11,930.262L1701.36,930.075C1706.03,931.995 1715.35,930.904 1725.39,923.17L1739.08,912.612L1758.81,860.82C1761.35,854.104 1763.45,846.575 1763.39,841.858L1763.63,841.675L1783.25,867.125L1783.01,867.308C1779.01,868.691 1775.24,874.062 1773.1,879.337L1764.48,900.645C1763.38,903.595 1762.05,906.516 1759.67,910.258L1760.03,910.737C1764.38,909.295 1767.61,909.087 1770.66,908.645L1793.36,905.62C1799.01,904.887 1805.16,902.616 1807.43,898.962L1807.67,898.779L1826.18,922.795ZM686.387,934.998C660.42,913.773 658.262,883.182 680.025,856.548C686.133,849.069 692.216,843.519 699.712,838.348L721.208,852.794L721.137,853.132C709.837,851.877 699.404,857.577 692.054,866.569C678.595,883.044 681.675,902.115 699.454,916.648C717.116,931.086 736.762,932.719 750.029,916.486C760.337,903.869 761.466,892.123 758.575,879.632L758.883,879.494L777.258,899.177C774.462,906.832 769.325,917.84 761.308,927.648C740.691,952.877 710.05,954.336 686.387,934.998ZM1657.6,882.487L1618.14,846.287L1618.35,846.062C1622.84,846.742 1631,844.321 1639.27,835.317L1679.5,791.5C1687.46,782.825 1689.19,774.7 1688.02,770.179L1688.22,769.954L1715.45,794.946L1715.24,795.167C1710.75,794.487 1702.58,796.908 1694.32,805.912L1649.45,854.783L1660.45,864.875C1670.13,873.75 1680.93,877.596 1691.75,875.396L1691.88,875.708L1669.13,894.692C1665.61,890.042 1662.71,887.183 1657.6,882.487ZM773.213,834.975C752.446,808.633 755.271,778.112 782.625,756.542C807.963,736.546 838.279,740.162 858.121,765.329C878.704,791.437 875.092,823.146 848.683,843.975C822.158,864.9 792.133,858.971 773.213,834.975ZM841.4,780.417C825.808,760.642 807.142,756.942 791.038,769.646C775.408,781.975 775.533,801.625 789.933,819.883C805.071,839.083 823.342,844.225 840.271,830.862C854.838,819.375 856.171,799.15 841.4,780.417ZM1602.23,797.881L1583.09,820.943C1578.81,817.264 1575.62,814.96 1568.04,810.293L1522.69,782.406L1522.84,782.156C1527.38,781.968 1534.93,778.035 1541.33,767.623L1572.17,717.443C1578.65,706.902 1578.8,698.593 1576.79,694.381L1576.94,694.127L1623.07,722.485C1628.21,725.643 1634.1,728.739 1637.31,729.839L1625.52,753.923L1625.19,753.889C1625.93,745.768 1620.81,738.252 1610.79,732.093L1593.83,721.66L1580.09,744.014L1589.86,750.023C1600.53,756.581 1604.2,758.668 1610.45,761.456L1593.61,780.506L1593.35,780.352C1594.68,773.289 1591.46,768.16 1584.26,763.739L1572.45,756.473L1554.88,785.052L1568.88,793.66C1580.19,800.606 1591.76,801.948 1602.05,797.602L1602.23,797.881ZM918.976,787.895C921.363,781.2 922.213,774.354 918.809,764.458L899.688,709.712C897.018,701.937 890.763,692.283 882.947,691.254L882.959,690.916L914.726,677.35C913.943,680.12 916.038,684.25 922.28,688.883L945.972,706.329C953.43,711.9 959.643,718.004 964.226,725.287L964.784,725.05C963.293,715.791 964.205,707.945 965.38,698.041L968.847,668.512C969.734,661 968.313,656.904 965.768,655.558L997.809,641.87L998.063,642.091C993.293,648.183 995.501,659.879 999.272,667.187L1026.31,718.558C1029.67,724.904 1035.88,732.141 1042.98,734.95L1042.96,735.283L1011.2,748.841L1010.94,748.629C1012.58,745.17 1012.63,738.012 1008.25,729.666L993.909,702.233C990.597,696.025 987.688,688.837 984.672,678.295L984.113,678.529C985.122,688.958 984.684,696.77 983.388,706.404L979.001,738.754C977.526,749.116 978.622,755.133 979.572,758.133L978.463,758.604C976.818,755.904 973.084,751.012 964.501,745.108L936.863,726.108C929.38,720.87 923.718,715.67 916.98,707.2L916.426,707.429C921.926,717.245 925.088,724.645 927.334,730.666L937.93,759.7C941.205,768.52 946.147,773.541 949.776,774.75L949.751,775.083L919.234,788.112L918.976,787.895ZM1517.08,693.385L1516.74,693.418C1515.56,686.622 1510.67,679.405 1502.19,676.268L1491.58,672.335L1469.07,733.164C1464.61,745.193 1465.84,754.068 1469.62,758.176L1469.52,758.451L1432.88,744.889L1432.98,744.61C1437.97,743.751 1445.29,737.872 1449.69,725.989L1472.2,665.164L1461.45,661.18C1452.96,658.039 1444.56,660.33 1439.23,664.718L1439,664.476L1450.87,639.776C1457.07,643.022 1462.91,645.505 1469.84,648.068L1504.35,660.843C1511.28,663.414 1517.33,665.339 1524.15,666.905L1517.08,693.385ZM1384.54,700.823L1375.41,729.36C1370.05,727.543 1366.24,726.593 1357.47,725.106L1304.98,716.202L1305.03,715.91C1309.17,714.043 1314.7,707.573 1316.75,695.527L1326.62,637.485C1328.69,625.285 1325.72,617.531 1322.28,614.373L1322.33,614.081L1375.72,623.131C1381.67,624.143 1388.28,624.81 1391.68,624.631L1389.73,651.364L1389.42,651.46C1387.07,643.656 1379.51,638.589 1367.92,636.627L1348.29,633.298L1343.89,659.156L1355.19,661.077C1367.53,663.168 1371.73,663.731 1378.56,663.977L1370.05,687.931L1369.76,687.885C1368.36,680.843 1363.45,677.289 1355.12,675.877L1341.44,673.56L1335.83,706.623L1352.03,709.373C1365.12,711.589 1376.35,708.506 1384.28,700.623L1384.54,700.823ZM1146.43,646.019C1150.51,669.969 1138.6,683.632 1114.95,687.648L1102.76,689.719L1104.83,701.915C1106.81,713.523 1112.17,719.865 1116.46,721.711L1116.51,722.002L1080.07,728.19L1080.02,727.898C1083.31,724.769 1086.4,716.836 1084.35,704.782L1074.37,646.157C1072.4,634.548 1067.04,628.198 1062.75,626.357L1062.7,626.065L1103.3,619.169C1126.95,615.157 1142.84,624.857 1146.43,646.019ZM1249.95,712.908L1196.4,712.703L1196.4,712.408C1200.18,709.883 1204.59,702.595 1204.63,690.37L1204.86,630.883C1204.91,619.103 1200.71,611.933 1196.81,609.374L1196.81,609.078L1233.76,609.22L1233.76,609.524C1229.98,612.041 1225.58,619.328 1225.53,631.558L1225.27,697.899L1240.2,697.966C1253.32,698.012 1263.89,693.578 1270.41,684.658L1270.71,684.812L1266.68,714.17C1260.95,713.103 1256.88,712.937 1249.95,712.908ZM1125.49,650.627C1123.19,637.111 1115.89,631.998 1102.36,634.298L1093.58,635.79L1100.25,675.019L1109.05,673.682C1122.77,671.507 1127.64,663.265 1125.49,650.627Z" style="fill:rgb(3,4,4);fill-rule:nonzero;"/>
        </g>
        <g id="CookedBG" transform="matrix(0.24,0,0,0.24,0,0)">
            <path d="M2241.1,1226.04L2241.14,1226.15C2229.34,1257.45 2181.85,1368.57 2163.63,1393.91L2163.62,1393.92C2142.12,1423.81 2118.79,1447.88 2094.11,1466.56L2094.11,1466.56C2062.77,1490.28 2031.31,1503.35 2000.78,1508.08C1962.92,1513.94 1933.46,1507.47 1910.8,1493.4C1907.32,1496.35 1903.83,1499.12 1900.37,1501.76L1900.36,1501.76C1871.41,1523.78 1843.07,1535.32 1816.74,1539.4C1794.47,1542.85 1771.9,1541.1 1749,1533.5L1748.95,1533.48C1744.02,1531.84 1739.22,1529.94 1734.56,1527.77C1728.89,1531.9 1723.14,1535.83 1717.3,1539.57L1717.29,1539.58C1682.24,1562.01 1646.2,1575.68 1609.46,1581.38L1609.45,1581.38C1568.01,1587.8 1533.69,1582.9 1505.69,1570.33C1479.56,1590.32 1452.48,1601.46 1425.43,1605.65C1386.39,1611.69 1352.68,1603.01 1323.7,1582.31L1323.69,1582.3C1320.66,1580.14 1317.71,1577.87 1314.85,1575.5C1311.3,1581.37 1307.86,1586.16 1304.7,1589.97L1304.66,1590.02C1287.42,1610.77 1263.55,1625.78 1230.81,1630.85L1230.8,1630.85C1217.51,1632.91 1201.75,1632.74 1183.71,1627.95L1183.7,1627.95C1163.91,1622.7 1142.55,1611.16 1126.22,1586.73C1115.24,1598.19 1103.59,1609.08 1091.25,1619.4L1091.24,1619.41C1056.82,1648.21 1021.37,1663.99 986.171,1669.44L986.17,1669.45C927.653,1678.52 888.823,1659.34 864.057,1627.21C853.046,1638.73 841.341,1649.66 828.958,1660.03L828.947,1660.03C794.519,1688.83 759.067,1704.62 723.862,1710.07C694.221,1714.66 669.631,1712.01 649.363,1704.07C637.34,1714.67 624.833,1724.5 611.857,1733.59L611.845,1733.59C571.69,1761.68 528.358,1779.13 482.012,1786.3C422.836,1795.47 374.832,1785.78 337.081,1763.6C297.975,1740.64 269.158,1707.78 251.025,1664.65C236.042,1629.02 228.385,1590.94 228.385,1550.32C228.385,1505.4 235.055,1459.25 248.704,1411.93C261.684,1366.91 279.637,1323.14 302.632,1280.63C325.479,1238.38 351.466,1200 380.508,1165.37L380.518,1165.36C411.312,1128.66 444.366,1098.48 479.445,1074.5L479.453,1074.5C520.178,1046.67 561.047,1030.38 601.45,1024.12C643.55,1017.6 678.644,1024.34 707.372,1039.51L707.393,1039.53C746.158,1060.03 774.694,1097.96 774.694,1162.56C774.694,1183.27 771.503,1207.04 764.253,1233.69C760.142,1248.82 755.13,1263.76 749.194,1278.53C769.51,1263.53 794.317,1253.03 824.246,1248.39C883.844,1239.15 922.796,1259.76 947.11,1289.3L947.136,1289.34C950.382,1293.29 953.413,1297.4 956.187,1301.69L958.934,1300.5C967.611,1283.69 979.09,1267.92 993.58,1253.35C1016.69,1230.1 1047.19,1213.87 1086.54,1207.77C1120.35,1202.53 1147.52,1206.89 1169.14,1217.06C1178.69,1192.75 1188.78,1169 1199.41,1145.79C1216.63,1108.17 1234.13,1074.07 1251.87,1043.45L1251.88,1043.44C1271.22,1010.07 1289.51,983.348 1306.37,963.039L1306.37,963.037C1340,922.548 1373.27,908.121 1395.35,904.693C1422.54,900.47 1448.41,904.554 1470.88,920.885L1490.36,910.055L1490.36,939.278C1494.62,944.336 1498.69,949.999 1502.57,956.293L1502.6,956.341C1514.93,976.436 1523.51,1003.08 1523.51,1037.42C1523.51,1061.55 1518.89,1089.29 1508.25,1120.37C1501.54,1139.97 1492.77,1160.11 1481.83,1180.72C1490.29,1185.04 1498.44,1190.29 1506.29,1196.39L1506.31,1196.41C1509.47,1198.87 1512.5,1201.41 1515.37,1204.08C1531.96,1185.89 1549.72,1169.86 1568.54,1155.9C1602.79,1130.49 1637.5,1116.09 1671.78,1110.78L1671.78,1110.78C1700.38,1106.35 1727.58,1109.77 1753.47,1120.62L1753.49,1120.63C1766.13,1125.94 1778.04,1133.22 1788.29,1142.94C1803.94,1128.17 1820.26,1115.19 1837.19,1103.89C1867.84,1083.44 1899.11,1071.35 1930.54,1066.47L1933.07,1066.12C1943.04,1040.07 1953.02,1014.83 1963.01,990.404C1975.23,960.5 1987.35,933.677 1999.33,909.913C2013.04,882.681 2026.4,860.749 2038.97,843.902C2067.59,805.498 2099.04,791.482 2123.03,787.761L2123.04,787.758C2154.17,782.943 2181.77,790.694 2205.98,811.07L2206.11,811.182C2228.89,830.511 2242.69,856.619 2242.69,891.494C2242.69,905.899 2238.5,930.792 2224.53,964.72L2224.53,964.725C2216.43,984.374 2206.14,1007.92 2193.64,1035.35C2190.64,1041.93 2192.13,1057.22 2196.05,1076.42C2221.58,1103.62 2263.32,1160.74 2241.1,1226.04ZM514.379,1378.45C500.439,1408.32 489.397,1438.53 481.31,1469.11L481.307,1469.12C473.997,1496.73 462.726,1580.68 511.046,1560.85C529.902,1547.35 547.089,1530.64 562.784,1510.93L562.785,1510.93C570.452,1501.3 577.43,1491.51 583.697,1481.53C589.651,1463.84 597.145,1446.82 606.162,1430.48C609.247,1424.89 612.434,1419.54 615.725,1414.43L614.576,1414.63C593.778,1417.85 571.728,1415.42 548.926,1404.44C537.217,1398.81 525.318,1390.54 514.379,1378.45Z" style="fill:white;"/>
        </g>
        <g id="Hearts">
            <g id="Heart1">
                <g transform="matrix(0.47542,0,0,0.47542,53.6789,76.2815)">
                    <path d="M419.579,666.2L419.579,662.279L435.262,662.279L435.262,666.2L435.197,666.2L435.262,666.262L435.262,666.2L439.183,666.2L439.183,669.984L439.327,670.121L443.12,670.121L443.12,666.2L447.041,666.2L447.041,666.437L447.274,666.212L447.519,666.2L447.041,666.2L447.041,662.279L462.724,662.279L462.724,666.2L462.549,666.2L462.724,666.373L462.724,666.2L466.645,666.2L466.645,670.121L466.523,670.121L466.645,670.241L466.645,670.121L470.566,670.121L470.566,689.727L466.645,689.727L466.645,689.676L466.595,689.727L466.645,689.727L466.645,693.647L462.724,693.647L462.724,693.62L462.697,693.647L462.724,693.647L462.724,697.568L458.803,697.568L458.803,697.565L458.8,697.568L458.803,697.568L458.803,701.489L454.903,701.489L454.883,701.509L454.883,705.41L451.005,705.41L450.962,705.453L450.962,709.33L447.108,709.33L447.041,709.397L447.041,713.251L443.207,713.251L443.12,713.323L443.12,717.172L439.2,717.172L439.2,713.251L439.345,713.251L439.183,713.094L439.183,713.251L435.262,713.251L435.262,709.33L435.35,709.33L435.262,709.244L435.262,709.33L431.341,709.33L431.341,705.41L427.421,705.41L427.421,701.545L427.364,701.489L423.5,701.489L423.5,697.695L423.371,697.568L419.579,697.568L419.579,693.846L419.377,693.647L415.658,693.647L415.658,689.996L415.384,689.727L411.738,689.727L411.738,670.121L415.658,670.121L415.658,670.251L415.784,670.121L415.658,670.121L415.658,666.2L419.579,666.2ZM431.357,705.41L431.341,705.394L431.341,705.41L431.357,705.41Z" style="fill:rgb(35,31,32);"/>
                </g>
                <g transform="matrix(0.47542,0,0,0.47542,18.0224,76.2815)">
                    <path d="M525.913,705.41L521.993,705.41L521.993,709.33L522.058,709.33L521.993,709.396L521.993,709.33L518.072,709.33L518.072,713.235L514.278,713.235L514.134,713.091L514.134,709.33L510.386,709.33L510.214,709.158L510.214,705.41L506.477,705.41L506.293,705.225L506.293,701.489L502.569,701.489L502.372,701.292L502.372,697.568L498.66,697.568L498.451,697.359L498.451,693.647L494.751,693.647L494.531,693.426L494.531,689.727L490.843,689.727L490.656,689.539L490.61,670.121L494.531,670.121L494.531,666.2L510.148,666.2L510.214,666.262L510.214,670.121L514.151,670.121L514.151,674.042L518.072,674.042L518.072,670.121L518.061,670.121L521.993,670.121L521.993,666.437L522.225,666.212L537.676,666.212L537.676,670.121L541.596,670.121L541.596,669.995L541.726,670.121L541.596,670.121L541.596,689.67L541.54,689.727L537.676,689.727L537.676,693.615L537.644,693.647L533.755,693.647L533.755,697.561L533.747,697.568L529.834,697.568L529.834,701.489L525.913,701.489L525.913,705.41ZM525.955,705.41L525.913,705.451L525.913,705.41L525.955,705.41ZM529.851,701.489L529.834,701.506L529.834,701.489L529.851,701.489Z" style="fill:rgb(237,31,36);"/>
                </g>
                <g transform="matrix(0.47542,0,0,0.47542,53.6789,76.2815)">
                    <path d="M423.5,681.883L419.579,681.883L419.579,674.042L423.5,674.042L423.5,681.883ZM423.5,670.121L427.421,670.121L427.421,674.042L423.5,674.042L423.5,670.121Z" style="fill:white;"/>
                </g>
            </g>
            <g id="Heart2" transform="matrix(1,0,0,1,34.7056,0)">
                <g transform="matrix(0.47542,0,0,0.47542,53.6789,76.2815)">
                    <path d="M419.579,666.2L419.579,662.279L435.262,662.279L435.262,666.2L435.197,666.2L435.262,666.262L435.262,666.2L439.183,666.2L439.183,669.984L439.327,670.121L443.12,670.121L443.12,666.2L447.041,666.2L447.041,666.437L447.274,666.212L447.519,666.2L447.041,666.2L447.041,662.279L462.724,662.279L462.724,666.2L462.549,666.2L462.724,666.373L462.724,666.2L466.645,666.2L466.645,670.121L466.523,670.121L466.645,670.241L466.645,670.121L470.566,670.121L470.566,689.727L466.645,689.727L466.645,689.676L466.595,689.727L466.645,689.727L466.645,693.647L462.724,693.647L462.724,693.62L462.697,693.647L462.724,693.647L462.724,697.568L458.803,697.568L458.803,697.565L458.8,697.568L458.803,697.568L458.803,701.489L454.903,701.489L454.883,701.509L454.883,705.41L451.005,705.41L450.962,705.453L450.962,709.33L447.108,709.33L447.041,709.397L447.041,713.251L443.207,713.251L443.12,713.323L443.12,717.172L439.2,717.172L439.2,713.251L439.345,713.251L439.183,713.094L439.183,713.251L435.262,713.251L435.262,709.33L435.35,709.33L435.262,709.244L435.262,709.33L431.341,709.33L431.341,705.41L427.421,705.41L427.421,701.545L427.364,701.489L423.5,701.489L423.5,697.695L423.371,697.568L419.579,697.568L419.579,693.846L419.377,693.647L415.658,693.647L415.658,689.996L415.384,689.727L411.738,689.727L411.738,670.121L415.658,670.121L415.658,670.251L415.784,670.121L415.658,670.121L415.658,666.2L419.579,666.2ZM431.357,705.41L431.341,705.394L431.341,705.41L431.357,705.41Z" style="fill:rgb(35,31,32);"/>
                </g>
                <g transform="matrix(0.47542,0,0,0.47542,18.0224,76.2815)">
                    <path d="M525.913,705.41L521.993,705.41L521.993,709.33L522.058,709.33L521.993,709.396L521.993,709.33L518.072,709.33L518.072,713.235L514.278,713.235L514.134,713.091L514.134,709.33L510.386,709.33L510.214,709.158L510.214,705.41L506.477,705.41L506.293,705.225L506.293,701.489L502.569,701.489L502.372,701.292L502.372,697.568L498.66,697.568L498.451,697.359L498.451,693.647L494.751,693.647L494.531,693.426L494.531,689.727L490.843,689.727L490.656,689.539L490.61,670.121L494.531,670.121L494.531,666.2L510.148,666.2L510.214,666.262L510.214,670.121L514.151,670.121L514.151,674.042L518.072,674.042L518.072,670.121L518.061,670.121L521.993,670.121L521.993,666.437L522.225,666.212L537.676,666.212L537.676,670.121L541.596,670.121L541.596,669.995L541.726,670.121L541.596,670.121L541.596,689.67L541.54,689.727L537.676,689.727L537.676,693.615L537.644,693.647L533.755,693.647L533.755,697.561L533.747,697.568L529.834,697.568L529.834,701.489L525.913,701.489L525.913,705.41ZM525.955,705.41L525.913,705.451L525.913,705.41L525.955,705.41ZM529.851,701.489L529.834,701.506L529.834,701.489L529.851,701.489Z" style="fill:rgb(237,31,36);"/>
                </g>
                <g transform="matrix(0.47542,0,0,0.47542,53.6789,76.2815)">
                    <path d="M423.5,681.883L419.579,681.883L419.579,674.042L423.5,674.042L423.5,681.883ZM423.5,670.121L427.421,670.121L427.421,674.042L423.5,674.042L423.5,670.121Z" style="fill:white;"/>
                </g>
            </g>
            <g id="Heart3" transform="matrix(1,0,0,1,69.8867,0)">
                <g transform="matrix(0.47542,0,0,0.47542,53.6789,76.2815)">
                    <path d="M419.579,666.2L419.579,662.279L435.262,662.279L435.262,666.2L435.197,666.2L435.262,666.262L435.262,666.2L439.183,666.2L439.183,669.984L439.327,670.121L443.12,670.121L443.12,666.2L447.041,666.2L447.041,666.437L447.274,666.212L447.519,666.2L447.041,666.2L447.041,662.279L462.724,662.279L462.724,666.2L462.549,666.2L462.724,666.373L462.724,666.2L466.645,666.2L466.645,670.121L466.523,670.121L466.645,670.241L466.645,670.121L470.566,670.121L470.566,689.727L466.645,689.727L466.645,689.676L466.595,689.727L466.645,689.727L466.645,693.647L462.724,693.647L462.724,693.62L462.697,693.647L462.724,693.647L462.724,697.568L458.803,697.568L458.803,697.565L458.8,697.568L458.803,697.568L458.803,701.489L454.903,701.489L454.883,701.509L454.883,705.41L451.005,705.41L450.962,705.453L450.962,709.33L447.108,709.33L447.041,709.397L447.041,713.251L443.207,713.251L443.12,713.323L443.12,717.172L439.2,717.172L439.2,713.251L439.345,713.251L439.183,713.094L439.183,713.251L435.262,713.251L435.262,709.33L435.35,709.33L435.262,709.244L435.262,709.33L431.341,709.33L431.341,705.41L427.421,705.41L427.421,701.545L427.364,701.489L423.5,701.489L423.5,697.695L423.371,697.568L419.579,697.568L419.579,693.846L419.377,693.647L415.658,693.647L415.658,689.996L415.384,689.727L411.738,689.727L411.738,670.121L415.658,670.121L415.658,670.251L415.784,670.121L415.658,670.121L415.658,666.2L419.579,666.2ZM431.357,705.41L431.341,705.394L431.341,705.41L431.357,705.41Z" style="fill:rgb(35,31,32);"/>
                </g>
                <g transform="matrix(0.47542,0,0,0.47542,18.0224,76.2815)">
                    <path d="M518.072,674.042L518.072,713.235L514.278,713.235L514.134,713.091L514.134,709.33L510.386,709.33L510.214,709.158L510.214,705.41L506.477,705.41L506.293,705.225L506.293,701.489L502.569,701.489L502.372,701.292L502.372,697.568L498.66,697.568L498.451,697.359L498.451,693.647L494.751,693.647L494.531,693.426L494.531,689.727L490.843,689.727L490.656,689.539L490.61,670.121L494.531,670.121L494.531,666.2L510.148,666.2L510.214,666.262L510.214,670.121L514.151,670.121L514.151,674.042L518.072,674.042Z" style="fill:rgb(237,31,36);"/>
                </g>
                <g transform="matrix(0.47542,0,0,0.47542,53.6789,76.2815)">
                    <path d="M423.5,681.883L419.579,681.883L419.579,674.042L423.5,674.042L423.5,681.883ZM423.5,670.121L427.421,670.121L427.421,674.042L423.5,674.042L423.5,670.121Z" style="fill:white;"/>
                </g>
            </g>
        </g>
        <g id="Hat">
            <g transform="matrix(1,0,0,1,221.511,206.503)">
                <path d="M0,100.835L-5.724,90.469C-5.724,90.469 -33.229,93.015 -31.762,72.063C-31.762,72.063 -31.07,57.998 -19.578,53.954C-19.578,53.954 -13.213,28.626 14.059,31.246C14.059,31.246 30.716,0 52.977,7.487C75.238,14.974 68.329,45.641 60.243,55.866L66.927,84.517C66.927,84.517 42.552,79.319 0,100.835" style="fill:rgb(206,32,49);fill-rule:nonzero;"/>
            </g>
            <g transform="matrix(-0.6129,-0.790161,-0.790161,0.6129,220.714,271.097)">
                <path d="M-37.157,-54.385C-37.157,-54.385 -24.518,-53.468 -23.543,19.457L-37.157,20.025C-37.157,20.025 -39.611,-18.68 -58.479,-41.505L-37.157,-54.385Z" style="fill:rgb(253,218,197);fill-rule:nonzero;"/>
            </g>
            <g transform="matrix(1,0,0,1,229.076,255.672)">
                <path d="M0,6.146C-2.3,7.823 -6.183,9.908 -4.622,12.106C-0.98,17.23 5.504,20.265 12.474,19.451C22.434,18.287 29.615,9.706 28.515,0.285C27.532,-8.121 22.193,-13.064 13.98,-13.206C12.988,-13.223 11,-14.119 10.88,-13.045C10.118,-6.22 9.219,-0.574 0,6.146" style="fill:white;fill-rule:nonzero;"/>
            </g>
            <g transform="matrix(0.116029,0.993246,0.993246,-0.116029,201.511,271.006)">
                <path d="M10.958,-7.679C19.105,-7.679 25.709,-6.254 25.709,0.255C25.708,6.764 19.105,12.04 10.958,12.04C2.81,12.039 -6.653,6.349 -3.793,0.255C-1.275,-5.116 2.811,-7.679 10.958,-7.679" style="fill:white;fill-rule:nonzero;"/>
            </g>
            <g transform="matrix(-0.810024,0.586397,0.586397,0.810024,226.584,250.7)">
                <path d="M2.987,-8.044C8.671,-8.043 13.28,-7.417 13.279,-4.562C13.279,-1.705 8.671,0.61 2.987,0.609C-2.698,0.609 -9.301,-1.888 -7.306,-4.563C-5.548,-6.919 -2.697,-8.045 2.987,-8.044" style="fill:white;fill-rule:nonzero;"/>
            </g>
            <g transform="matrix(0.116059,0.993242,0.993242,-0.116059,281.225,226.328)">
                <path d="M12.932,-9.919C24.481,-9.92 38.116,-2.516 33.843,5.287C29.199,13.771 24.481,10.028 12.932,10.028C1.383,10.028 -1.286,11.601 -7.978,5.287C-15.03,-1.364 1.383,-9.919 12.932,-9.919" style="fill:white;fill-rule:nonzero;"/>
            </g>
            <g transform="matrix(1,0,0,1,292.51,208.291)">
                <path d="M0,87.055L-3.035,61.016C-3.035,61.016 13.761,36.694 -1.12,17.474C-14.648,0 -34.926,9.636 -40.884,16.558C-56.69,34.92 -51.915,35.922 -63.065,50.39C-68.722,57.731 -75.685,64.215 -84.38,67.648C-84.38,67.648 -59.494,63.304 -48.518,40.48C-37.541,17.656 -20.601,10.724 -9.771,19.898C-2.474,26.079 0.263,43.398 -9.804,53.909L-23.406,58.37L-8.563,64.534L0,87.055Z" style="fill:rgb(3,4,4);fill-rule:nonzero;"/>
            </g>
            <g transform="matrix(1,0,0,1,292.51,279.462)">
                <path d="M0,15.884C0,15.884 -12.301,8.879 -65.642,37.85L-72.741,22.164C-72.741,22.164 -100.812,25.683 -98.581,-2.343C-98.581,-2.343 -96.566,-21.966 -67.859,-20.054C-67.859,-20.054 -94.459,-16.228 -94.917,0.341C-95.355,16.203 -81.183,19.56 -71.388,15.304L-64.983,29.156C-64.983,29.156 -26.559,3.668 0,15.884" style="fill:rgb(3,4,4);fill-rule:nonzero;"/>
            </g>
            <g transform="matrix(1,0,0,1,240.3,257.31)">
                <path d="M0,-16.625C0,-16.625 -28.299,-22.708 -33.637,6.083C-33.637,6.083 -24.189,-15.587 0,-16.625" style="fill:rgb(3,4,4);fill-rule:nonzero;"/>
            </g>
            <g transform="matrix(1,0,0,1,240.014,299.182)">
                <path d="M0,-16.451C0,-16.451 -2.448,-8.508 -15.731,-5.671L-13.28,0C-13.28,0 0.2,-7.085 0,-16.451" style="fill:rgb(3,4,4);fill-rule:nonzero;"/>
            </g>
            <g transform="matrix(-0.116069,-0.993241,-0.993241,0.116069,279.537,277.516)">
                <path d="M-2.687,-3.019C-6.994,-3.019 -10.485,-1.808 -10.485,-0.314C-10.485,1.18 -6.993,2.391 -2.687,2.391C1.62,2.391 5.111,1.18 5.111,-0.314C5.111,-1.808 1.62,-3.019 -2.687,-3.019" style="fill:rgb(35,31,32);fill-rule:nonzero;"/>
            </g>
            <g transform="matrix(-0.116157,-0.993231,-0.993231,0.116157,279.525,275.814)">
                <path d="M-1.096,-1.23C-2.839,-1.229 -4.254,-0.736 -4.254,-0.128C-4.253,0.481 -2.839,0.975 -1.096,0.974C0.649,0.974 2.063,0.481 2.063,-0.128C2.063,-0.736 0.648,-1.23 -1.096,-1.23" style="fill:white;fill-rule:nonzero;"/>
            </g>
            <g transform="matrix(-0.116069,-0.993241,-0.993241,0.116069,263.083,280.314)">
                <path d="M-2.687,-3.019C-6.994,-3.019 -10.485,-1.808 -10.485,-0.314C-10.485,1.18 -6.993,2.391 -2.687,2.391C1.62,2.391 5.111,1.18 5.111,-0.314C5.111,-1.808 1.62,-3.019 -2.687,-3.019" style="fill:rgb(35,31,32);fill-rule:nonzero;"/>
            </g>
            <g transform="matrix(-0.116157,-0.993231,-0.993231,0.116157,263.072,278.611)">
                <path d="M-1.096,-1.23C-2.839,-1.229 -4.254,-0.736 -4.254,-0.128C-4.253,0.481 -2.839,0.975 -1.096,0.974C0.649,0.974 2.063,0.481 2.063,-0.128C2.063,-0.736 0.648,-1.23 -1.096,-1.23" style="fill:white;fill-rule:nonzero;"/>
            </g>
        </g>
        <g id="Cooked" transform="matrix(0.24,0,0,0.24,0,0)">
            <path d="M1753.7,1348.82C1754.07,1347.77 1754.44,1346.72 1754.83,1345.66C1762.35,1325.23 1772.57,1304.38 1785.5,1283.09C1798.43,1261.82 1813.47,1241.87 1830.63,1223.23C1847.79,1204.59 1866,1188.84 1885.28,1175.98C1904.55,1163.12 1924.06,1155.17 1943.8,1152.11C1954.61,1150.43 1963.07,1150.89 1969.19,1153.47C1975.29,1156.05 1978.35,1161.33 1978.35,1169.32C1978.35,1171.68 1977.88,1174.45 1976.94,1177.65C1976,1180.86 1973.65,1183.92 1969.89,1186.85C1968,1184.32 1964.71,1182.84 1960.02,1182.38C1955.32,1181.94 1950.38,1182.12 1945.21,1182.92C1929.7,1185.32 1914.89,1191.96 1900.79,1202.84C1886.69,1213.73 1873.75,1226.89 1862.01,1242.34C1850.25,1257.8 1840.03,1274.19 1831.34,1291.51C1822.63,1308.84 1815.93,1325.27 1811.24,1340.81C1806.54,1356.34 1804.19,1369.52 1804.19,1380.33C1804.19,1389.27 1806.06,1396.14 1809.83,1400.96C1813.59,1405.79 1819.23,1407.61 1826.75,1406.44C1839.45,1404.48 1854.61,1394.73 1872.23,1377.19C1889.86,1359.65 1907.95,1335.47 1926.53,1304.62C1945.09,1273.79 1961.89,1237.69 1976.94,1196.34C1987.28,1167.94 1998.09,1138.88 2009.38,1109.16C2020.66,1079.46 2031.94,1050.79 2043.22,1023.19C2054.5,995.594 2065.66,970.831 2076.71,948.902C2087.75,926.99 2098.33,909.244 2108.44,895.694C2118.55,882.135 2127.83,874.706 2136.29,873.394C2141.46,872.594 2146.05,873.89 2150.05,877.256C2154.03,880.64 2156.04,885.39 2156.04,891.494C2156.04,899.49 2152.16,912.89 2144.4,931.719C2136.64,950.552 2126.78,973.119 2114.79,999.415C2102.8,1025.72 2089.87,1054.16 2076.01,1084.75C2062.14,1115.34 2049.22,1146.48 2037.23,1178.18C2025.24,1209.89 2015.37,1240.79 2007.61,1270.91C1999.86,1301.02 1995.98,1328.77 1995.98,1354.15C1995.98,1365.43 1997.03,1372.91 1999.15,1376.57C2001.27,1380.25 2004.9,1381.67 2010.08,1380.87C2020.41,1379.27 2031.94,1373.5 2044.63,1363.54C2057.32,1353.58 2070.24,1339.71 2083.41,1321.92C2096.57,1304.14 2160.05,1195.59 2160.05,1195.59C2149.7,1223.05 2109.26,1321.09 2093.28,1343.31C2077.3,1365.53 2060.14,1383.59 2041.81,1397.46C2023.48,1411.34 2005.38,1419.68 1987.52,1422.44C1968.24,1425.43 1954.84,1421.39 1947.32,1410.34C1939.8,1399.28 1936.05,1385.53 1936.05,1369.07C1936.05,1361.56 1936.63,1353.82 1937.81,1345.88C1938.97,1337.95 1940.27,1330.11 1941.68,1322.37C1927.11,1345.78 1911.72,1367.09 1895.5,1386.28C1879.28,1405.49 1863.42,1420.99 1847.91,1432.79C1832.39,1444.58 1817.59,1451.58 1803.48,1453.77C1794.55,1455.15 1785.5,1454.32 1776.34,1451.27C1767.17,1448.22 1759.42,1442.49 1753.07,1434.07C1746.73,1425.66 1743.55,1414.16 1743.55,1399.59C1743.55,1399.24 1743.55,1398.9 1743.56,1398.56C1741.37,1401.4 1739.14,1404.2 1736.86,1406.97C1716.88,1431.22 1694.79,1451.09 1670.58,1466.59C1646.37,1482.09 1621.57,1491.81 1596.19,1495.75C1566.11,1500.4 1542.96,1495.88 1526.74,1482.17C1514.71,1472.01 1507.15,1458.89 1504.04,1442.82C1491.9,1461.94 1478.67,1478.28 1464.34,1491.83C1447.42,1507.86 1430.03,1517.25 1412.17,1520.01C1397.59,1522.27 1384.9,1519.53 1374.09,1511.81C1363.27,1504.08 1354.58,1493.67 1348.01,1480.59C1341.41,1467.51 1336.48,1453.82 1333.2,1439.52C1329.9,1425.23 1328.26,1412.67 1328.26,1401.86C1334.84,1399.43 1343.07,1396.04 1352.94,1391.69C1362.82,1387.34 1372.91,1381.9 1383.26,1375.36C1393.6,1368.82 1402.17,1361.39 1409,1353.04C1415.81,1344.7 1419.22,1335.36 1419.22,1325.01C1419.22,1316.56 1416.51,1310.17 1411.11,1305.83C1405.7,1301.49 1398.07,1300.09 1388.19,1301.62C1375.03,1303.65 1362.57,1309.94 1350.82,1320.45C1339.07,1330.97 1328.14,1344.06 1318.04,1359.73C1307.92,1375.39 1298.76,1392.1 1290.54,1409.81C1282.31,1427.55 1275.02,1444.65 1268.68,1461.15C1262.34,1477.64 1257.05,1491.86 1252.82,1503.8C1247.64,1518.7 1242.7,1528.99 1238.01,1534.65C1233.31,1540.31 1226.49,1543.83 1217.56,1545.22C1214.27,1545.73 1210.39,1545.38 1205.93,1544.2C1201.45,1543.01 1197.7,1538.88 1194.64,1531.84C1191.58,1524.81 1190.07,1513.05 1190.07,1496.59C1190.07,1483.66 1190.88,1470.03 1192.5,1455.7C1187.49,1461.67 1182.1,1466.96 1176.32,1471.57C1159.15,1485.28 1142.35,1493.41 1125.9,1495.95C1119.79,1496.9 1113.67,1497.26 1107.57,1497.03C1101.45,1496.81 1095.81,1496.15 1090.65,1495.07C1074.66,1516.35 1056.33,1535.63 1035.65,1552.94C1014.96,1570.25 994.046,1580.54 972.896,1583.81C951.742,1587.09 937.284,1582.39 929.53,1569.73C921.771,1557.07 917.896,1542.51 917.896,1526.05C917.896,1520.14 918.261,1514.11 918.989,1507.97C917.364,1509.44 915.707,1510.85 914.017,1512.19C896.858,1525.9 880.054,1534.03 863.604,1536.58C857.492,1537.52 851.375,1537.89 845.275,1537.65C839.158,1537.43 833.517,1536.78 828.35,1535.69C812.363,1556.97 794.029,1576.26 773.35,1593.57C752.663,1610.87 731.75,1621.16 710.596,1624.44C689.446,1627.72 674.988,1623.01 667.233,1610.35C659.492,1597.71 655.612,1583.18 655.6,1566.75C650.61,1573.87 645.44,1580.88 640.094,1587.76C617.056,1617.42 591.09,1642.35 562.181,1662.58C533.269,1682.8 502.123,1695.5 468.752,1700.67C433.023,1706.2 403.76,1702.28 380.969,1688.88C358.16,1675.49 341.481,1656.22 330.906,1631.07C320.327,1605.91 315.04,1579 315.04,1550.32C315.04,1513.19 320.681,1475.05 331.965,1435.94C343.244,1396.82 358.869,1358.8 378.852,1321.85C398.827,1284.92 421.51,1251.33 446.894,1221.06C472.281,1190.81 499.423,1165.81 528.335,1146.05C557.244,1126.3 586.031,1114.2 614.71,1109.76C635.39,1106.55 652.785,1108.68 666.885,1116.13C680.99,1123.59 688.04,1139.06 688.04,1162.56C688.04,1176.66 685.573,1192.8 680.635,1210.95C675.702,1229.11 669.11,1246.93 660.894,1264.42C652.66,1281.92 643.377,1296.64 633.04,1308.58C622.698,1320.52 612.119,1327.33 601.315,1329C596.606,1329.73 591.669,1328.85 586.506,1326.36C581.327,1323.88 576.635,1318.96 572.402,1311.62C579.452,1302.54 587.44,1291.55 596.377,1278.65C605.302,1265.75 613.765,1252.23 621.76,1238.05C629.748,1223.89 636.327,1210.18 641.502,1196.92C646.673,1183.67 649.26,1172.34 649.26,1162.93C649.26,1154.47 646.902,1148.13 642.206,1143.92C637.502,1139.72 629.273,1138.52 617.527,1140.34C596.84,1143.55 575.573,1154.6 553.719,1173.49C531.86,1192.39 510.819,1216.45 490.61,1245.67C470.394,1274.89 452.181,1306.86 435.965,1341.57C419.748,1376.28 406.935,1411.41 397.54,1446.94C388.127,1482.48 383.435,1515.53 383.435,1546.07C383.435,1568.64 386.84,1589.62 393.66,1609C400.469,1628.4 411.398,1643.4 426.448,1653.99C441.485,1664.58 461.227,1667.99 485.673,1664.2C511.06,1660.28 536.323,1649.31 561.477,1631.32C586.615,1613.32 609.652,1591.18 630.573,1564.91C642.859,1549.48 653.73,1533.7 663.179,1517.57C667.824,1501.77 674.118,1486.69 682.042,1472.33C690.258,1457.42 699.425,1445.08 709.542,1435.28C719.642,1425.5 729.867,1419.79 740.213,1418.19C743.496,1417.68 747.371,1417.68 751.846,1418.15C756.308,1418.64 759.483,1419.91 761.363,1421.97C755.725,1429.89 749.963,1439.49 744.092,1450.73C738.208,1461.98 732.808,1473.75 727.871,1486.03C722.938,1498.32 719.058,1510.55 716.238,1522.73C713.417,1534.92 712.004,1545.95 712.004,1555.83C712.004,1565.23 713.771,1572.71 717.296,1578.27C720.821,1583.84 727.046,1585.93 735.983,1584.55C744.908,1583.16 755.604,1576.46 768.067,1564.42C780.513,1552.38 792.388,1538.92 803.671,1524C788.621,1512.7 777.817,1499.44 771.233,1484.25C764.646,1469.05 761.363,1449.94 761.363,1426.9C761.363,1417.03 763.833,1405.37 768.767,1391.91C773.704,1378.45 781.692,1366.17 792.742,1355.06C803.783,1343.95 818.713,1336.94 837.517,1334.03C857.721,1330.89 871.942,1334.33 880.175,1344.34C888.396,1354.35 892.517,1367.1 892.517,1382.62C892.517,1400.01 887.929,1420.23 878.767,1443.27C869.6,1466.32 858.671,1488.46 845.979,1509.69C851.617,1511.64 858.196,1512.03 865.721,1510.86C872.771,1509.77 881.233,1506.83 891.104,1502C900.975,1497.18 910.604,1490.16 920.013,1480.95C922.232,1478.78 924.347,1476.46 926.357,1474.02C930.907,1459.28 936.9,1445.18 944.338,1431.71C952.555,1416.8 961.725,1404.46 971.838,1394.66C981.938,1384.87 992.163,1379.17 1002.51,1377.56C1005.79,1377.06 1009.67,1377.05 1014.14,1377.53C1018.61,1378.01 1021.78,1379.29 1023.66,1381.34C1018.02,1389.27 1012.26,1398.86 1006.39,1410.11C1000.5,1421.36 995.105,1433.12 990.167,1445.41C985.234,1457.7 981.359,1469.93 978.534,1482.11C975.717,1494.3 974.305,1505.33 974.305,1515.2C974.305,1524.61 976.067,1532.09 979.592,1537.65C983.117,1543.22 989.342,1545.3 998.28,1543.92C1007.2,1542.54 1017.9,1535.84 1030.36,1523.79C1042.81,1511.76 1054.68,1498.29 1065.97,1483.38C1050.92,1472.08 1040.11,1458.82 1033.53,1443.63C1026.94,1428.43 1023.66,1409.31 1023.66,1386.28C1023.66,1376.41 1026.13,1364.74 1031.06,1351.29C1036,1337.83 1043.99,1325.55 1055.04,1314.43C1066.08,1303.33 1081.01,1296.31 1099.81,1293.4C1120.02,1290.27 1134.24,1293.71 1142.48,1303.71C1150.7,1313.72 1154.81,1326.48 1154.81,1341.99C1154.81,1359.38 1150.23,1379.61 1141.06,1402.65C1131.9,1425.69 1120.97,1447.84 1108.28,1469.07C1113.91,1471.01 1120.49,1471.41 1128.02,1470.24C1135.07,1469.15 1143.53,1466.2 1153.4,1461.37C1163.28,1456.56 1172.9,1449.54 1182.31,1440.33C1188.3,1434.46 1193.52,1427.61 1197.99,1419.79C1199.2,1413.39 1200.55,1406.88 1202.04,1400.25C1210.04,1364.7 1220.73,1328.15 1234.13,1290.57C1247.53,1253.01 1262.21,1216.78 1278.2,1181.86C1294.18,1146.95 1310.39,1115.3 1326.85,1086.89C1343.3,1058.51 1358.69,1035.67 1373.04,1018.4C1387.37,1001.14 1399.24,991.78 1408.64,990.321C1416.63,989.08 1423.33,992.875 1428.74,1001.66C1434.14,1010.46 1436.85,1022.38 1436.85,1037.42C1436.85,1053.41 1433.32,1071.7 1426.27,1092.3C1419.22,1112.9 1409.23,1134.19 1396.31,1156.17C1383.37,1178.16 1367.98,1199.45 1350.12,1220.08C1332.25,1240.72 1312.51,1259.05 1290.89,1275.09C1277.73,1307.69 1267.62,1339.45 1260.57,1370.39C1253.52,1401.34 1249.05,1428.47 1247.18,1451.78C1255.63,1431.21 1265.26,1409.97 1276.09,1388.08C1286.89,1366.2 1298.88,1345.42 1312.04,1325.75C1325.2,1306.09 1339.42,1289.67 1354.7,1276.49C1369.97,1263.31 1386.31,1255.37 1403.71,1252.68C1422.5,1249.77 1438.96,1253.81 1453.07,1264.78C1467.17,1275.76 1474.22,1291.12 1474.22,1310.86C1474.22,1324.96 1470.45,1337.77 1462.94,1349.27C1455.41,1360.78 1446.12,1370.81 1435.09,1379.32C1424.04,1387.85 1412.88,1394.64 1401.59,1399.67C1390.31,1404.7 1380.67,1408.08 1372.68,1409.79C1374.09,1415.68 1376.09,1423.13 1378.68,1432.13C1381.25,1441.14 1384.67,1449.77 1388.9,1458.04C1393.13,1466.32 1398.53,1473.01 1405.12,1478.09C1411.7,1483.19 1419.45,1485.04 1428.39,1483.65C1440.13,1481.84 1452.24,1474.56 1464.7,1461.82C1477.15,1449.08 1489.38,1432.85 1501.37,1413.12C1502.02,1412.06 1502.66,1410.99 1503.3,1409.91C1505.21,1393.36 1510.2,1375.58 1518.28,1356.57C1528.86,1331.66 1543.07,1307.6 1560.94,1284.38C1578.8,1261.17 1598.54,1241.54 1620.16,1225.5C1641.78,1209.46 1663.41,1199.77 1685.04,1196.42C1697.26,1194.52 1708.88,1195.89 1719.93,1200.53C1730.98,1205.17 1736.51,1216.89 1736.51,1235.69C1736.51,1253.55 1731.33,1271.04 1720.99,1288.15C1710.65,1305.27 1696.78,1321.28 1679.39,1336.19C1662,1351.12 1642.84,1364.07 1621.93,1375.06C1601.01,1386.06 1579.97,1394.37 1558.82,1400C1558.35,1401.95 1558,1404 1557.77,1406.15C1557.52,1408.31 1557.41,1411.74 1557.41,1416.43C1557.41,1418.79 1557.77,1422.84 1558.47,1428.6C1559.18,1434.38 1561.17,1440.3 1564.46,1446.36C1567.75,1452.44 1573.16,1457.25 1580.68,1460.77C1588.19,1464.32 1598.54,1465.06 1611.71,1463.02C1631.45,1459.96 1651.3,1451.37 1671.29,1437.22C1691.26,1423.09 1710.07,1405.48 1727.69,1384.42C1737.22,1373.04 1745.89,1361.17 1753.7,1348.82ZM822.004,1498.6C833.288,1480.4 842.913,1461.28 850.913,1441.24C858.9,1421.2 862.9,1403.19 862.9,1387.2C862.9,1376.39 861.246,1368.77 857.963,1364.35C854.671,1359.92 849.733,1358.22 843.158,1359.23C834.221,1360.62 825.058,1368.38 815.658,1382.53C806.246,1396.68 801.554,1413.39 801.554,1432.66C801.554,1442.53 803.317,1454.25 806.846,1467.8C810.367,1481.36 815.417,1491.63 822.004,1498.6ZM1084.3,1457.97C1095.58,1439.78 1105.21,1420.66 1113.21,1400.61C1121.2,1380.58 1125.2,1362.56 1125.2,1346.58C1125.2,1335.77 1123.54,1328.15 1120.26,1323.72C1116.97,1319.3 1112.03,1317.59 1105.45,1318.61C1096.52,1319.99 1087.36,1327.76 1077.95,1341.91C1068.54,1356.06 1063.85,1372.77 1063.85,1392.04C1063.85,1401.91 1065.61,1413.63 1069.14,1427.18C1072.66,1440.74 1077.71,1451.01 1084.3,1457.97ZM1566.58,1372.7C1578.8,1369.4 1592.42,1363.06 1607.47,1353.68C1622.52,1344.3 1636.97,1333.14 1650.84,1320.17C1664.7,1307.21 1676.1,1293.58 1685.04,1279.27C1693.96,1264.96 1698.43,1251.22 1698.43,1238.06C1698.43,1232.89 1697.49,1229.51 1695.62,1227.91C1693.73,1226.33 1690.68,1225.86 1686.44,1226.52C1675.63,1228.19 1664.35,1233.82 1652.6,1243.39C1640.84,1252.97 1629.33,1264.87 1618.05,1279.06C1606.77,1293.27 1596.65,1308.59 1587.73,1325.01C1578.8,1341.44 1571.75,1357.34 1566.58,1372.7ZM1311.34,1223.97C1324.03,1210.73 1337.43,1194.67 1351.53,1175.79C1365.63,1156.93 1377.73,1137.19 1387.85,1116.58C1397.94,1095.98 1403.24,1076.95 1403.71,1059.48L1403.71,1057.36C1399.01,1059.97 1391.6,1069.23 1381.49,1085.13C1371.38,1101.04 1360.22,1120.98 1348.01,1144.96C1335.78,1168.96 1323.56,1195.29 1311.34,1223.97Z" style="fill:rgb(3,4,4);fill-rule:nonzero;stroke:black;stroke-width:7.5px;stroke-linejoin:round;stroke-miterlimit:2;"/>
        </g>
    </g>
</svg>
