# Blender v3.0.0 OBJ File: 'piss.blend'
# www.blender.org
mtllib piss.mtl
o Sphere
v 0.026985 0.100045 -0.408079
v 0.072284 0.076571 -0.760806
v 0.096951 0.041440 -0.980351
v 0.096951 -0.041440 -0.980351
v 0.026985 -0.100045 -0.408079
v 0.142129 0.100045 -0.380911
v 0.298798 0.076571 -0.709090
v 0.391411 0.041440 -0.927172
v 0.415368 -0.000000 -1.003367
v 0.391411 -0.041440 -0.927172
v 0.298798 -0.076571 -0.709090
v 0.142129 -0.100045 -0.380912
v 0.233773 0.100045 -0.328973
v 0.453412 0.076571 -0.609457
v 0.585728 0.041440 -0.801710
v 0.626079 -0.000000 -0.869712
v 0.585728 -0.041440 -0.801710
v 0.453412 -0.076571 -0.609457
v 0.233773 -0.100045 -0.328973
v 0.299986 0.100045 -0.258493
v 0.558769 0.076571 -0.467709
v 0.718084 0.041440 -0.612505
v 0.770343 -0.000000 -0.665477
v 0.718084 -0.041440 -0.612505
v 0.558769 -0.076571 -0.467709
v 0.299986 -0.100045 -0.258493
v 0.346024 0.100045 -0.172652
v 0.631429 0.076571 -0.302184
v 0.812724 0.041440 -0.394093
v 0.875249 -0.000000 -0.429564
v 0.812724 -0.041440 -0.394093
v 0.631429 -0.076571 -0.302184
v 0.346024 -0.100045 -0.172652
v 0.373251 0.100045 -0.078704
v 0.680637 0.076571 -0.132113
v 0.886743 0.041440 -0.176897
v 0.960234 -0.000000 -0.196212
v 0.886743 -0.041440 -0.176897
v 0.680637 -0.076571 -0.132113
v 0.373251 -0.100045 -0.078704
v 0.384752 0.100045 0.018765
v 0.707651 0.076571 0.037182
v 0.921456 0.041440 0.037853
v 0.996968 -0.000000 0.035840
v 0.921456 -0.041440 0.037853
v 0.707651 -0.076571 0.037182
v 0.384752 -0.100045 0.018765
v 0.377614 0.100045 0.115072
v 0.696743 0.076571 0.210319
v 0.903575 0.041440 0.261536
v 0.975177 -0.000000 0.277478
v 0.903576 -0.041440 0.261536
v 0.696743 -0.076571 0.210319
v 0.377614 -0.100045 0.115072
v 0.345952 0.100045 0.206202
v 0.643537 0.076571 0.381029
v 0.833824 0.041440 0.489205
v 0.898454 -0.000000 0.525943
v 0.833825 -0.041440 0.489206
v 0.643537 -0.076571 0.381029
v 0.345952 -0.100045 0.206202
v 0.290277 0.100045 0.286447
v 0.546913 0.076571 0.537531
v 0.709845 0.041440 0.698533
v 0.764022 -0.000000 0.752639
v 0.709845 -0.041440 0.698533
v 0.546913 -0.076571 0.537531
v 0.290277 -0.100045 0.286447
v 0.212950 0.100045 0.348726
v 0.407005 0.076571 0.655133
v 0.528965 0.041440 0.853723
v 0.568479 -0.000000 0.920809
v 0.528965 -0.041440 0.853724
v 0.407005 -0.076571 0.655133
v 0.212950 -0.100045 0.348726
v 0.114271 0.100045 0.386724
v 0.228518 0.076571 0.720966
v 0.295682 0.041440 0.937650
v 0.315735 -0.000000 1.011458
v 0.295682 -0.041440 0.937650
v 0.228518 -0.076571 0.720966
v 0.114271 -0.100045 0.386724
v 0.000009 -0.108288 -0.000003
v -0.000624 0.100045 0.398897
v 0.008594 0.076571 0.738783
v 0.016893 0.041440 0.955906
v 0.018880 -0.000000 1.030007
v 0.016893 -0.041440 0.955906
v 0.008594 -0.076571 0.738783
v -0.000624 -0.100045 0.398897
v -0.119321 0.100045 0.384722
v -0.228745 0.076571 0.711948
v -0.292275 0.041440 0.920910
v -0.311659 -0.000000 0.992272
v -0.292276 -0.041440 0.920910
v -0.228745 -0.076571 0.711948
v -0.119321 -0.100045 0.384722
v 0.000009 0.108288 -0.000003
v -0.225346 0.100045 0.344915
v -0.442214 0.076571 0.641661
v -0.574507 0.041440 0.834174
v -0.613831 -0.000000 0.900175
v -0.574507 -0.041440 0.834174
v -0.442214 -0.076571 0.641661
v -0.225346 -0.100045 0.344915
v -0.305165 0.100045 0.282084
v -0.590463 0.076571 0.529082
v -0.775479 0.041440 0.691341
v -0.835004 -0.000000 0.746547
v -0.775479 -0.041440 0.691342
v -0.590463 -0.076571 0.529082
v -0.305165 -0.100045 0.282084
v -0.355574 0.100045 0.200202
v -0.670845 0.076571 0.375273
v -0.878231 0.041440 0.489514
v -0.947595 -0.000000 0.528283
v -0.878231 -0.041440 0.489515
v -0.670845 -0.076571 0.375273
v -0.355574 -0.100045 0.200202
v -0.384507 0.100045 0.099557
v -0.697483 0.076571 0.188498
v -0.899775 0.041440 0.247913
v -0.970689 -0.000000 0.267350
v -0.899776 -0.041440 0.247913
v -0.697483 -0.076571 0.188498
v -0.384507 -0.100045 0.099557
v -0.395524 0.100045 -0.012595
v -0.705092 0.076571 -0.025960
v -0.897333 0.041440 -0.026063
v -0.964276 -0.000000 -0.024236
v -0.897333 -0.041440 -0.026063
v -0.705092 -0.076571 -0.025960
v -0.395524 -0.100045 -0.012595
v -0.389214 0.100045 -0.124857
v -0.709376 0.076571 -0.242056
v -0.916932 0.041440 -0.303941
v -0.987965 -0.000000 -0.321438
v -0.916932 -0.041440 -0.303941
v -0.709376 -0.076571 -0.242056
v -0.389214 -0.100045 -0.124857
v -0.363736 0.100045 -0.225966
v -0.694931 0.076571 -0.434928
v -0.909733 0.041440 -0.558220
v -0.979763 -0.000000 -0.596256
v -0.909733 -0.041440 -0.558220
v -0.694931 -0.076571 -0.434928
v -0.363736 -0.100045 -0.225966
v -0.308165 0.100045 -0.309088
v -0.617095 0.076571 -0.588652
v -0.811692 0.041440 -0.762186
v -0.872002 -0.000000 -0.817820
v -0.811692 -0.041440 -0.762186
v -0.617095 -0.076571 -0.588652
v -0.308165 -0.100045 -0.309088
v -0.217717 0.100045 -0.369475
v -0.448274 0.076571 -0.693976
v -0.595403 0.041440 -0.893016
v -0.637892 -0.000000 -0.958428
v -0.595403 -0.041440 -0.893016
v -0.448274 -0.076571 -0.693976
v -0.217717 -0.100045 -0.369475
v -0.100128 0.100045 -0.403705
v -0.198460 0.076571 -0.751830
v -0.264062 0.041440 -0.964420
v -0.284677 -0.000000 -1.034616
v -0.264062 -0.041440 -0.964421
v -0.198460 -0.076571 -0.751830
v -0.100128 -0.100045 -0.403705
v 0.101984 -0.000000 -1.053563
v 0.072284 -0.076571 -0.760805
vt 0.750000 0.625000
vt 0.750000 0.750000
vt 0.708333 0.750000
vt 0.708333 0.625000
vt 0.750000 0.875000
vt 0.729167 1.000000
vt 0.708333 0.875000
vt 0.729167 0.000000
vt 0.750000 0.125000
vt 0.708333 0.125000
vt 0.750000 0.250000
vt 0.750000 0.375000
vt 0.708333 0.375000
vt 0.708333 0.250000
vt 0.750000 0.500000
vt 0.708333 0.500000
vt 0.666667 0.375000
vt 0.666667 0.250000
vt 0.666667 0.625000
vt 0.666667 0.500000
vt 0.666667 0.875000
vt 0.666667 0.750000
vt 0.666667 0.125000
vt 0.687500 1.000000
vt 0.687500 0.000000
vt 0.625000 0.250000
vt 0.625000 0.125000
vt 0.625000 0.500000
vt 0.625000 0.375000
vt 0.625000 0.750000
vt 0.625000 0.625000
vt 0.645833 1.000000
vt 0.625000 0.875000
vt 0.645833 0.000000
vt 0.583333 0.500000
vt 0.583333 0.375000
vt 0.583333 0.750000
vt 0.583333 0.625000
vt 0.604167 1.000000
vt 0.583333 0.875000
vt 0.604167 0.000000
vt 0.583333 0.125000
vt 0.583333 0.250000
vt 0.562500 0.000000
vt 0.541667 0.125000
vt 0.541667 0.375000
vt 0.541667 0.250000
vt 0.541667 0.625000
vt 0.541667 0.500000
vt 0.541667 0.875000
vt 0.541667 0.750000
vt 0.562500 1.000000
vt 0.500000 0.625000
vt 0.500000 0.500000
vt 0.500000 0.875000
vt 0.500000 0.750000
vt 0.500000 0.250000
vt 0.500000 0.125000
vt 0.500000 0.375000
vt 0.520833 1.000000
vt 0.520833 0.000000
vt 0.458333 0.250000
vt 0.458333 0.125000
vt 0.458333 0.500000
vt 0.458333 0.375000
vt 0.458333 0.750000
vt 0.458333 0.625000
vt 0.479167 1.000000
vt 0.458333 0.875000
vt 0.479167 0.000000
vt 0.416667 0.750000
vt 0.416667 0.625000
vt 0.437500 1.000000
vt 0.416667 0.875000
vt 0.437500 0.000000
vt 0.416667 0.125000
vt 0.416667 0.375000
vt 0.416667 0.250000
vt 0.416667 0.500000
vt 0.395833 0.000000
vt 0.375000 0.125000
vt 0.375000 0.375000
vt 0.375000 0.250000
vt 0.375000 0.625000
vt 0.375000 0.500000
vt 0.375000 0.875000
vt 0.375000 0.750000
vt 0.395833 1.000000
vt 0.333333 0.875000
vt 0.333333 0.750000
vt 0.333333 0.250000
vt 0.333333 0.125000
vt 0.333333 0.500000
vt 0.333333 0.375000
vt 0.333333 0.625000
vt 0.354167 1.000000
vt 0.354167 0.000000
vt 0.291667 0.250000
vt 0.291667 0.125000
vt 0.291667 0.500000
vt 0.291667 0.375000
vt 0.291667 0.750000
vt 0.291667 0.625000
vt 0.312500 1.000000
vt 0.291667 0.875000
vt 0.312500 0.000000
vt 0.270833 1.000000
vt 0.250000 0.875000
vt 0.270833 0.000000
vt 0.250000 0.125000
vt 0.250000 0.375000
vt 0.250000 0.250000
vt 0.250000 0.625000
vt 0.250000 0.500000
vt 0.250000 0.750000
vt 0.208333 0.375000
vt 0.208333 0.250000
vt 0.208333 0.625000
vt 0.208333 0.500000
vt 0.208333 0.875000
vt 0.208333 0.750000
vt 0.208333 0.125000
vt 0.229167 1.000000
vt 0.229167 0.000000
vt 0.166667 0.250000
vt 0.166667 0.125000
vt 0.166667 0.500000
vt 0.166667 0.375000
vt 0.166667 0.750000
vt 0.166667 0.625000
vt 0.187500 1.000000
vt 0.166667 0.875000
vt 0.187500 0.000000
vt 0.125000 0.500000
vt 0.125000 0.375000
vt 0.125000 0.750000
vt 0.125000 0.625000
vt 0.145833 1.000000
vt 0.125000 0.875000
vt 0.145833 0.000000
vt 0.125000 0.125000
vt 0.125000 0.250000
vt 0.104167 0.000000
vt 0.083333 0.125000
vt 0.083333 0.375000
vt 0.083333 0.250000
vt 0.083333 0.625000
vt 0.083333 0.500000
vt 0.083333 0.875000
vt 0.083333 0.750000
vt 0.104167 1.000000
vt 0.041667 0.625000
vt 0.041667 0.500000
vt 0.041667 0.875000
vt 0.041667 0.750000
vt 0.041667 0.250000
vt 0.041667 0.125000
vt 0.041667 0.375000
vt 0.062500 1.000000
vt 0.062500 0.000000
vt 0.000000 0.250000
vt 0.000000 0.125000
vt 0.000000 0.500000
vt 0.000000 0.375000
vt 0.000000 0.750000
vt 0.000000 0.625000
vt 0.020833 1.000000
vt 0.000000 0.875000
vt 0.020833 0.000000
vt 1.000000 0.625000
vt 1.000000 0.750000
vt 0.958333 0.750000
vt 0.958333 0.625000
vt 1.000000 0.875000
vt 0.979167 1.000000
vt 0.958333 0.875000
vt 0.979167 0.000000
vt 1.000000 0.125000
vt 0.958333 0.125000
vt 1.000000 0.250000
vt 1.000000 0.375000
vt 0.958333 0.375000
vt 0.958333 0.250000
vt 1.000000 0.500000
vt 0.958333 0.500000
vt 0.937500 0.000000
vt 0.916667 0.125000
vt 0.916667 0.375000
vt 0.916667 0.250000
vt 0.916667 0.625000
vt 0.916667 0.500000
vt 0.916667 0.875000
vt 0.916667 0.750000
vt 0.937500 1.000000
vt 0.875000 0.875000
vt 0.875000 0.750000
vt 0.875000 0.250000
vt 0.875000 0.125000
vt 0.875000 0.500000
vt 0.875000 0.375000
vt 0.875000 0.625000
vt 0.895833 1.000000
vt 0.895833 0.000000
vt 0.833333 0.250000
vt 0.833333 0.125000
vt 0.833333 0.500000
vt 0.833333 0.375000
vt 0.833333 0.750000
vt 0.833333 0.625000
vt 0.854167 1.000000
vt 0.833333 0.875000
vt 0.854167 0.000000
vt 0.812500 1.000000
vt 0.791667 0.875000
vt 0.812500 0.000000
vt 0.791667 0.125000
vt 0.791667 0.375000
vt 0.791667 0.250000
vt 0.791667 0.625000
vt 0.791667 0.500000
vt 0.791667 0.750000
vt 0.770833 1.000000
vt 0.770833 0.000000
vn 0.0214 0.9415 -0.3364
vn 0.0094 0.9934 -0.1141
vn 0.0419 0.9937 -0.1033
vn 0.1215 0.9438 -0.3072
vn 0.0042 0.9990 -0.0447
vn 0.0005 1.0000 0.0002
vn 0.0165 0.9990 -0.0414
vn 0.0005 -1.0000 0.0002
vn 0.0042 -0.9990 -0.0447
vn 0.0165 -0.9990 -0.0414
vn 0.0094 -0.9934 -0.1141
vn 0.0214 -0.9415 -0.3364
vn 0.1215 -0.9438 -0.3072
vn 0.0419 -0.9937 -0.1033
vn 0.0595 0.0000 -0.9982
vn 0.3517 0.0000 -0.9361
vn 0.2379 -0.9413 -0.2393
vn 0.0791 -0.9934 -0.0823
vn 0.2379 0.9413 -0.2393
vn 0.6750 0.0000 -0.7378
vn 0.0298 0.9990 -0.0344
vn 0.0791 0.9934 -0.0823
vn 0.0298 -0.9990 -0.0344
vn 0.1051 -0.9926 -0.0601
vn 0.0404 -0.9988 -0.0258
vn 0.8637 0.0000 -0.5040
vn 0.3042 -0.9377 -0.1680
vn 0.1051 0.9926 -0.0601
vn 0.3042 0.9377 -0.1680
vn 0.0404 0.9988 -0.0258
vn 0.9287 0.0000 -0.3708
vn 0.3200 -0.9391 -0.1246
vn 0.1159 0.9923 -0.0434
vn 0.3200 0.9391 -0.1246
vn 0.0463 0.9987 -0.0177
vn 0.0463 -0.9987 -0.0177
vn 0.1159 -0.9923 -0.0434
vn 0.0485 -0.9987 -0.0104
vn 0.3286 -0.9409 -0.0823
vn 0.1191 -0.9925 -0.0276
vn 0.3286 0.9409 -0.0823
vn 0.9689 0.0000 -0.2474
vn 0.0485 0.9987 -0.0104
vn 0.1191 0.9925 -0.0276
vn 0.3389 0.9407 -0.0127
vn 0.9994 0.0000 -0.0354
vn 0.0487 0.9988 -0.0019
vn 0.1211 0.9926 -0.0052
vn 0.1211 -0.9926 -0.0052
vn 0.0487 -0.9988 -0.0019
vn 0.3389 -0.9407 -0.0127
vn 0.1178 -0.9928 0.0221
vn 0.0470 -0.9988 0.0089
vn 0.9813 0.0000 0.1926
vn 0.3353 -0.9398 0.0646
vn 0.1178 0.9928 0.0221
vn 0.3353 0.9398 0.0646
vn 0.0470 0.9988 0.0089
vn 0.1068 0.9931 0.0480
vn 0.3115 0.9403 0.1367
vn 0.0418 0.9989 0.0199
vn 0.0418 -0.9989 0.0199
vn 0.3115 -0.9403 0.1367
vn 0.1068 -0.9931 0.0480
vn 0.9119 0.0000 0.4104
vn 0.0336 -0.9990 0.0299
vn 0.2578 -0.9421 0.2143
vn 0.0865 -0.9935 0.0734
vn 0.2578 0.9421 0.2143
vn 0.7616 0.0000 0.6480
vn 0.0336 0.9990 0.0299
vn 0.0865 0.9935 0.0734
vn 0.0222 0.9990 0.0388
vn 0.0561 0.9937 0.0969
vn 0.0561 -0.9937 0.0969
vn 0.0222 -0.9990 0.0388
vn 0.5036 0.0000 0.8639
vn 0.1670 -0.9433 0.2869
vn 0.1670 0.9433 0.2869
vn 0.0237 -0.9934 0.1118
vn 0.0099 -0.9989 0.0445
vn 0.2068 0.0000 0.9784
vn 0.0672 -0.9425 0.3273
vn 0.0237 0.9934 0.1118
vn 0.0672 0.9425 0.3273
vn 0.0099 0.9989 0.0445
vn -0.0006 0.9989 0.0464
vn -0.0006 -0.9989 0.0464
vn -0.0085 -0.9414 0.3371
vn -0.0023 -0.9931 0.1168
vn -0.0085 0.9414 0.3371
vn -0.0225 0.0000 0.9997
vn -0.0023 0.9931 0.1168
vn -0.0685 -0.9413 0.3305
vn -0.0243 -0.9932 0.1137
vn -0.0685 0.9413 0.3305
vn -0.2063 0.0000 0.9785
vn -0.0101 0.9989 0.0450
vn -0.0243 0.9932 0.1137
vn -0.0101 -0.9989 0.0450
vn -0.0503 -0.9937 0.0999
vn -0.0208 -0.9990 0.0394
vn -0.4439 0.0000 0.8961
vn -0.1451 -0.9433 0.2985
vn -0.0503 0.9937 0.0999
vn -0.1451 0.9433 0.2985
vn -0.0208 0.9990 0.0394
vn -0.7508 0.0000 0.6605
vn -0.2470 -0.9452 0.2132
vn -0.0823 0.9941 0.0703
vn -0.2470 0.9452 0.2132
vn -0.0329 0.9990 0.0286
vn -0.0329 -0.9990 0.0286
vn -0.0823 -0.9941 0.0703
vn -0.0426 -0.9990 0.0156
vn -0.3248 -0.9416 0.0880
vn -0.1093 -0.9935 0.0326
vn -0.3248 0.9416 0.0880
vn -0.9545 0.0000 0.2982
vn -0.0426 0.9990 0.0156
vn -0.1093 0.9935 0.0326
vn -0.3477 0.9375 0.0133
vn -0.9991 0.0000 0.0424
vn -0.0477 0.9988 0.0064
vn -0.1220 0.9925 0.0092
vn -0.1220 -0.9925 0.0092
vn -0.0477 -0.9988 0.0064
vn -0.3477 -0.9375 0.0133
vn -0.1250 -0.9921 0.0034
vn -0.0490 -0.9988 0.0012
vn -0.9995 0.0000 0.0299
vn -0.3478 -0.9375 0.0103
vn -0.1250 0.9921 0.0034
vn -0.3478 0.9375 0.0103
vn -0.0490 0.9988 0.0012
vn -0.1210 0.9926 -0.0019
vn -0.3497 0.9368 0.0077
vn -0.0472 0.9989 -0.0038
vn -0.0472 -0.9989 -0.0038
vn -0.3497 -0.9368 0.0077
vn -0.1210 -0.9926 -0.0019
vn -0.9998 0.0000 0.0159
vn -0.0411 -0.9991 -0.0137
vn -0.3291 -0.9415 -0.0731
vn -0.1072 -0.9939 -0.0266
vn -0.3291 0.9415 -0.0730
vn -0.9647 0.0000 -0.2632
vn -0.0411 0.9991 -0.0137
vn -0.1072 0.9939 -0.0266
vn -0.0290 0.9992 -0.0280
vn -0.0753 0.9947 -0.0694
vn -0.0753 -0.9947 -0.0694
vn -0.0290 -0.9992 -0.0280
vn -0.7376 0.0000 -0.6752
vn -0.2394 -0.9461 -0.2181
vn -0.2394 0.9461 -0.2181
vn -0.0392 -0.9941 -0.1006
vn -0.0162 -0.9991 -0.0388
vn -0.3832 0.0000 -0.9236
vn -0.1188 -0.9432 -0.3100
vn -0.0392 0.9941 -0.1006
vn -0.1188 0.9432 -0.3100
vn -0.0162 0.9991 -0.0388
vn -0.0060 0.9990 -0.0438
vn -0.0060 -0.9990 -0.0438
vn -0.0426 -0.9405 -0.3372
vn -0.0143 -0.9935 -0.1130
vn -0.0426 0.9405 -0.3372
vn -0.1361 0.0000 -0.9907
vn -0.0143 0.9935 -0.1130
usemtl None
s 1
f 3/1/1 2/2/2 7/3/3 8/4/4
f 1/5/5 98/6/6 6/7/7
f 83/8/8 5/9/9 12/10/10
f 170/11/11 4/12/12 10/13/13 11/14/14
f 169/15/15 3/1/1 8/4/4 9/16/16
f 2/2/2 1/5/5 6/7/7 7/3/3
f 5/9/9 170/11/11 11/14/14 12/10/10
f 4/12/12 169/15/15 9/16/16 10/13/13
f 11/14/14 10/13/13 17/17/17 18/18/18
f 9/16/16 8/4/4 15/19/19 16/20/20
f 7/3/3 6/7/7 13/21/21 14/22/22
f 12/10/10 11/14/14 18/18/18 19/23/23
f 10/13/13 9/16/16 16/20/20 17/17/17
f 8/4/4 7/3/3 14/22/22 15/19/19
f 6/7/7 98/24/6 13/21/21
f 83/25/8 12/10/10 19/23/23
f 19/23/23 18/18/18 25/26/24 26/27/25
f 17/17/17 16/20/20 23/28/26 24/29/27
f 15/19/19 14/22/22 21/30/28 22/31/29
f 13/21/21 98/32/6 20/33/30
f 83/34/8 19/23/23 26/27/25
f 18/18/18 17/17/17 24/29/27 25/26/24
f 16/20/20 15/19/19 22/31/29 23/28/26
f 14/22/22 13/21/21 20/33/30 21/30/28
f 24/29/27 23/28/26 30/35/31 31/36/32
f 22/31/29 21/30/28 28/37/33 29/38/34
f 20/33/30 98/39/6 27/40/35
f 83/41/8 26/27/25 33/42/36
f 25/26/24 24/29/27 31/36/32 32/43/37
f 23/28/26 22/31/29 29/38/34 30/35/31
f 21/30/28 20/33/30 27/40/35 28/37/33
f 26/27/25 25/26/24 32/43/37 33/42/36
f 83/44/8 33/42/36 40/45/38
f 32/43/37 31/36/32 38/46/39 39/47/40
f 30/35/31 29/38/34 36/48/41 37/49/42
f 28/37/33 27/40/35 34/50/43 35/51/44
f 33/42/36 32/43/37 39/47/40 40/45/38
f 31/36/32 30/35/31 37/49/42 38/46/39
f 29/38/34 28/37/33 35/51/44 36/48/41
f 27/40/35 98/52/6 34/50/43
f 37/49/42 36/48/41 43/53/45 44/54/46
f 35/51/44 34/50/43 41/55/47 42/56/48
f 40/45/38 39/47/40 46/57/49 47/58/50
f 38/46/39 37/49/42 44/54/46 45/59/51
f 36/48/41 35/51/44 42/56/48 43/53/45
f 34/50/43 98/60/6 41/55/47
f 83/61/8 40/45/38 47/58/50
f 39/47/40 38/46/39 45/59/51 46/57/49
f 47/58/50 46/57/49 53/62/52 54/63/53
f 45/59/51 44/54/46 51/64/54 52/65/55
f 43/53/45 42/56/48 49/66/56 50/67/57
f 41/55/47 98/68/6 48/69/58
f 83/70/8 47/58/50 54/63/53
f 46/57/49 45/59/51 52/65/55 53/62/52
f 44/54/46 43/53/45 50/67/57 51/64/54
f 42/56/48 41/55/47 48/69/58 49/66/56
f 50/67/57 49/66/56 56/71/59 57/72/60
f 48/69/58 98/73/6 55/74/61
f 83/75/8 54/63/53 61/76/62
f 53/62/52 52/65/55 59/77/63 60/78/64
f 51/64/54 50/67/57 57/72/60 58/79/65
f 49/66/56 48/69/58 55/74/61 56/71/59
f 54/63/53 53/62/52 60/78/64 61/76/62
f 52/65/55 51/64/54 58/79/65 59/77/63
f 83/80/8 61/76/62 68/81/66
f 60/78/64 59/77/63 66/82/67 67/83/68
f 58/79/65 57/72/60 64/84/69 65/85/70
f 56/71/59 55/74/61 62/86/71 63/87/72
f 61/76/62 60/78/64 67/83/68 68/81/66
f 59/77/63 58/79/65 65/85/70 66/82/67
f 57/72/60 56/71/59 63/87/72 64/84/69
f 55/74/61 98/88/6 62/86/71
f 63/87/72 62/86/71 69/89/73 70/90/74
f 68/81/66 67/83/68 74/91/75 75/92/76
f 66/82/67 65/85/70 72/93/77 73/94/78
f 64/84/69 63/87/72 70/90/74 71/95/79
f 62/86/71 98/96/6 69/89/73
f 83/97/8 68/81/66 75/92/76
f 67/83/68 66/82/67 73/94/78 74/91/75
f 65/85/70 64/84/69 71/95/79 72/93/77
f 75/92/76 74/91/75 81/98/80 82/99/81
f 73/94/78 72/93/77 79/100/82 80/101/83
f 71/95/79 70/90/74 77/102/84 78/103/85
f 69/89/73 98/104/6 76/105/86
f 83/106/8 75/92/76 82/99/81
f 74/91/75 73/94/78 80/101/83 81/98/80
f 72/93/77 71/95/79 78/103/85 79/100/82
f 70/90/74 69/89/73 76/105/86 77/102/84
f 76/105/86 98/107/6 84/108/87
f 83/109/8 82/99/81 90/110/88
f 81/98/80 80/101/83 88/111/89 89/112/90
f 79/100/82 78/103/85 86/113/91 87/114/92
f 77/102/84 76/105/86 84/108/87 85/115/93
f 82/99/81 81/98/80 89/112/90 90/110/88
f 80/101/83 79/100/82 87/114/92 88/111/89
f 78/103/85 77/102/84 85/115/93 86/113/91
f 89/112/90 88/111/89 95/116/94 96/117/95
f 87/114/92 86/113/91 93/118/96 94/119/97
f 85/115/93 84/108/87 91/120/98 92/121/99
f 90/110/88 89/112/90 96/117/95 97/122/100
f 88/111/89 87/114/92 94/119/97 95/116/94
f 86/113/91 85/115/93 92/121/99 93/118/96
f 84/108/87 98/123/6 91/120/98
f 83/124/8 90/110/88 97/122/100
f 97/122/100 96/117/95 104/125/101 105/126/102
f 95/116/94 94/119/97 102/127/103 103/128/104
f 93/118/96 92/121/99 100/129/105 101/130/106
f 91/120/98 98/131/6 99/132/107
f 83/133/8 97/122/100 105/126/102
f 96/117/95 95/116/94 103/128/104 104/125/101
f 94/119/97 93/118/96 101/130/106 102/127/103
f 92/121/99 91/120/98 99/132/107 100/129/105
f 103/128/104 102/127/103 109/134/108 110/135/109
f 101/130/106 100/129/105 107/136/110 108/137/111
f 99/132/107 98/138/6 106/139/112
f 83/140/8 105/126/102 112/141/113
f 104/125/101 103/128/104 110/135/109 111/142/114
f 102/127/103 101/130/106 108/137/111 109/134/108
f 100/129/105 99/132/107 106/139/112 107/136/110
f 105/126/102 104/125/101 111/142/114 112/141/113
f 83/143/8 112/141/113 119/144/115
f 111/142/114 110/135/109 117/145/116 118/146/117
f 109/134/108 108/137/111 115/147/118 116/148/119
f 107/136/110 106/139/112 113/149/120 114/150/121
f 112/141/113 111/142/114 118/146/117 119/144/115
f 110/135/109 109/134/108 116/148/119 117/145/116
f 108/137/111 107/136/110 114/150/121 115/147/118
f 106/139/112 98/151/6 113/149/120
f 116/148/119 115/147/118 122/152/122 123/153/123
f 114/150/121 113/149/120 120/154/124 121/155/125
f 119/144/115 118/146/117 125/156/126 126/157/127
f 117/145/116 116/148/119 123/153/123 124/158/128
f 115/147/118 114/150/121 121/155/125 122/152/122
f 113/149/120 98/159/6 120/154/124
f 83/160/8 119/144/115 126/157/127
f 118/146/117 117/145/116 124/158/128 125/156/126
f 126/157/127 125/156/126 132/161/129 133/162/130
f 124/158/128 123/153/123 130/163/131 131/164/132
f 122/152/122 121/155/125 128/165/133 129/166/134
f 120/154/124 98/167/6 127/168/135
f 83/169/8 126/157/127 133/162/130
f 125/156/126 124/158/128 131/164/132 132/161/129
f 123/153/123 122/152/122 129/166/134 130/163/131
f 121/155/125 120/154/124 127/168/135 128/165/133
f 129/170/134 128/171/133 135/172/136 136/173/137
f 127/174/135 98/175/6 134/176/138
f 83/177/8 133/178/130 140/179/139
f 132/180/129 131/181/132 138/182/140 139/183/141
f 130/184/131 129/170/134 136/173/137 137/185/142
f 128/171/133 127/174/135 134/176/138 135/172/136
f 133/178/130 132/180/129 139/183/141 140/179/139
f 131/181/132 130/184/131 137/185/142 138/182/140
f 83/186/8 140/179/139 147/187/143
f 139/183/141 138/182/140 145/188/144 146/189/145
f 137/185/142 136/173/137 143/190/146 144/191/147
f 135/172/136 134/176/138 141/192/148 142/193/149
f 140/179/139 139/183/141 146/189/145 147/187/143
f 138/182/140 137/185/142 144/191/147 145/188/144
f 136/173/137 135/172/136 142/193/149 143/190/146
f 134/176/138 98/194/6 141/192/148
f 142/193/149 141/192/148 148/195/150 149/196/151
f 147/187/143 146/189/145 153/197/152 154/198/153
f 145/188/144 144/191/147 151/199/154 152/200/155
f 143/190/146 142/193/149 149/196/151 150/201/156
f 141/192/148 98/202/6 148/195/150
f 83/203/8 147/187/143 154/198/153
f 146/189/145 145/188/144 152/200/155 153/197/152
f 144/191/147 143/190/146 150/201/156 151/199/154
f 154/198/153 153/197/152 160/204/157 161/205/158
f 152/200/155 151/199/154 158/206/159 159/207/160
f 150/201/156 149/196/151 156/208/161 157/209/162
f 148/195/150 98/210/6 155/211/163
f 83/212/8 154/198/153 161/205/158
f 153/197/152 152/200/155 159/207/160 160/204/157
f 151/199/154 150/201/156 157/209/162 158/206/159
f 149/196/151 148/195/150 155/211/163 156/208/161
f 155/211/163 98/213/6 162/214/164
f 83/215/8 161/205/158 168/216/165
f 160/204/157 159/207/160 166/217/166 167/218/167
f 158/206/159 157/209/162 164/219/168 165/220/169
f 156/208/161 155/211/163 162/214/164 163/221/170
f 161/205/158 160/204/157 167/218/167 168/216/165
f 159/207/160 158/206/159 165/220/169 166/217/166
f 157/209/162 156/208/161 163/221/170 164/219/168
f 167/218/167 166/217/166 4/12/12 170/11/11
f 165/220/169 164/219/168 3/1/1 169/15/15
f 163/221/170 162/214/164 1/5/5 2/2/2
f 168/216/165 167/218/167 170/11/11 5/9/9
f 166/217/166 165/220/169 169/15/15 4/12/12
f 164/219/168 163/221/170 2/2/2 3/1/1
f 162/214/164 98/222/6 1/5/5
f 83/223/8 168/216/165 5/9/9
